  0
SECTION
  2
HEADER
  9
$ACADVER
  1
AC1018
  9
$ACADMAINTVER
 70
     0
  9
$DWGCODEPAGE
  3
ANSI_1252
  9
$INSBASE
 10
0.0
 20
0.0
 30
0.0
  9
$EXTMIN
 10
1.000000000000000E+20
 20
1.000000000000000E+20
 30
1.000000000000000E+20
  9
$EXTMAX
 10
-1.000000000000000E+20
 20
-1.000000000000000E+20
 30
-1.000000000000000E+20
  9
$LIMMIN
 10
0.0
 20
0.0
  9
$LIMMAX
 10
12.0
 20
9.0
  9
$ORTHOMODE
 70
     0
  9
$REGENMODE
 70
     1
  9
$FILLMODE
 70
     1
  9
$QTEXTMODE
 70
     0
  9
$MIRRTEXT
 70
     1
  9
$LTSCALE
 40
1.0
  9
$ATTMODE
 70
     1
  9
$TEXTSIZE
 40
0.2
  9
$TRACEWID
 40
0.05
  9
$TEXTSTYLE
  7
Standard
  9
$CLAYER
  8
0
  9
$CELTYPE
  6
ByLayer
  9
$CECOLOR
 62
   256
  9
$CELTSCALE
 40
1.0
  9
$DISPSILH
 70
     0
  9
$DIMSCALE
 40
1.0
  9
$DIMASZ
 40
0.18
  9
$DIMEXO
 40
0.0625
  9
$DIMDLI
 40
0.38
  9
$DIMRND
 40
0.0
  9
$DIMDLE
 40
0.0
  9
$DIMEXE
 40
0.18
  9
$DIMTP
 40
0.0
  9
$DIMTM
 40
0.0
  9
$DIMTXT
 40
0.18
  9
$DIMCEN
 40
0.09
  9
$DIMTSZ
 40
0.0
  9
$DIMTOL
 70
     0
  9
$DIMLIM
 70
     0
  9
$DIMTIH
 70
     1
  9
$DIMTOH
 70
     1
  9
$DIMSE1
 70
     0
  9
$DIMSE2
 70
     0
  9
$DIMTAD
 70
     0
  9
$DIMZIN
 70
     0
  9
$DIMBLK
  1

  9
$DIMASO
 70
     1
  9
$DIMSHO
 70
     1
  9
$DIMPOST
  1

  9
$DIMAPOST
  1

  9
$DIMALT
 70
     0
  9
$DIMALTD
 70
     2
  9
$DIMALTF
 40
25.4
  9
$DIMLFAC
 40
1.0
  9
$DIMTOFL
 70
     0
  9
$DIMTVP
 40
0.0
  9
$DIMTIX
 70
     0
  9
$DIMSOXD
 70
     0
  9
$DIMSAH
 70
     0
  9
$DIMBLK1
  1

  9
$DIMBLK2
  1

  9
$DIMSTYLE
  2
Standard
  9
$DIMCLRD
 70
     0
  9
$DIMCLRE
 70
     0
  9
$DIMCLRT
 70
     0
  9
$DIMTFAC
 40
1.0
  9
$DIMGAP
 40
0.09
  9
$DIMJUST
 70
     0
  9
$DIMSD1
 70
     0
  9
$DIMSD2
 70
     0
  9
$DIMTOLJ
 70
     1
  9
$DIMTZIN
 70
     0
  9
$DIMALTZ
 70
     0
  9
$DIMALTTZ
 70
     0
  9
$DIMUPT
 70
     0
  9
$DIMDEC
 70
     4
  9
$DIMTDEC
 70
     4
  9
$DIMALTU
 70
     2
  9
$DIMALTTD
 70
     2
  9
$DIMTXSTY
  7
Standard
  9
$DIMAUNIT
 70
     0
  9
$DIMADEC
 70
     0
  9
$DIMALTRND
 40
0.0
  9
$DIMAZIN
 70
     0
  9
$DIMDSEP
 70
    46
  9
$DIMATFIT
 70
     3
  9
$DIMFRAC
 70
     0
  9
$DIMLDRBLK
  1

  9
$DIMLUNIT
 70
     2
  9
$DIMLWD
 70
    -2
  9
$DIMLWE
 70
    -2
  9
$DIMTMOVE
 70
     0
  9
$LUNITS
 70
     2
  9
$LUPREC
 70
     4
  9
$SKETCHINC
 40
0.1
  9
$FILLETRAD
 40
0.5
  9
$AUNITS
 70
     0
  9
$AUPREC
 70
     0
  9
$MENU
  1
.
  9
$ELEVATION
 40
0.0
  9
$PELEVATION
 40
0.0
  9
$THICKNESS
 40
0.0
  9
$LIMCHECK
 70
     0
  9
$CHAMFERA
 40
0.5
  9
$CHAMFERB
 40
0.5
  9
$CHAMFERC
 40
1.0
  9
$CHAMFERD
 40
0.0
  9
$SKPOLY
 70
     0
  9
$TDCREATE
 40
2459305.852659734
  9
$TDUCREATE
 40
2459305.560993067
  9
$TDUPDATE
 40
2459305.852659768
  9
$TDUUPDATE
 40
2459305.560993102
  9
$TDINDWG
 40
0.0000000116
  9
$TDUSRTIMER
 40
0.0000000116
  9
$USRTIMER
 70
     1
  9
$ANGBASE
 50
0.0
  9
$ANGDIR
 70
     0
  9
$PDMODE
 70
     0
  9
$PDSIZE
 40
0.0
  9
$PLINEWID
 40
0.0
  9
$SPLFRAME
 70
     0
  9
$SPLINETYPE
 70
     6
  9
$SPLINESEGS
 70
     8
  9
$HANDSEED
  5
AB
  9
$SURFTAB1
 70
     6
  9
$SURFTAB2
 70
     6
  9
$SURFTYPE
 70
     6
  9
$SURFU
 70
     6
  9
$SURFV
 70
     6
  9
$UCSBASE
  2

  9
$UCSNAME
  2

  9
$UCSORG
 10
0.0
 20
0.0
 30
0.0
  9
$UCSXDIR
 10
1.0
 20
0.0
 30
0.0
  9
$UCSYDIR
 10
0.0
 20
1.0
 30
0.0
  9
$UCSORTHOREF
  2

  9
$UCSORTHOVIEW
 70
     0
  9
$UCSORGTOP
 10
0.0
 20
0.0
 30
0.0
  9
$UCSORGBOTTOM
 10
0.0
 20
0.0
 30
0.0
  9
$UCSORGLEFT
 10
0.0
 20
0.0
 30
0.0
  9
$UCSORGRIGHT
 10
0.0
 20
0.0
 30
0.0
  9
$UCSORGFRONT
 10
0.0
 20
0.0
 30
0.0
  9
$UCSORGBACK
 10
0.0
 20
0.0
 30
0.0
  9
$PUCSBASE
  2

  9
$PUCSNAME
  2

  9
$PUCSORG
 10
0.0
 20
0.0
 30
0.0
  9
$PUCSXDIR
 10
1.0
 20
0.0
 30
0.0
  9
$PUCSYDIR
 10
0.0
 20
1.0
 30
0.0
  9
$PUCSORTHOREF
  2

  9
$PUCSORTHOVIEW
 70
     0
  9
$PUCSORGTOP
 10
0.0
 20
0.0
 30
0.0
  9
$PUCSORGBOTTOM
 10
0.0
 20
0.0
 30
0.0
  9
$PUCSORGLEFT
 10
0.0
 20
0.0
 30
0.0
  9
$PUCSORGRIGHT
 10
0.0
 20
0.0
 30
0.0
  9
$PUCSORGFRONT
 10
0.0
 20
0.0
 30
0.0
  9
$PUCSORGBACK
 10
0.0
 20
0.0
 30
0.0
  9
$USERI1
 70
     0
  9
$USERI2
 70
     0
  9
$USERI3
 70
     0
  9
$USERI4
 70
     0
  9
$USERI5
 70
     0
  9
$USERR1
 40
0.0
  9
$USERR2
 40
0.0
  9
$USERR3
 40
0.0
  9
$USERR4
 40
0.0
  9
$USERR5
 40
0.0
  9
$WORLDVIEW
 70
     1
  9
$SHADEDGE
 70
     3
  9
$SHADEDIF
 70
    70
  9
$TILEMODE
 70
     1
  9
$MAXACTVP
 70
    64
  9
$PINSBASE
 10
0.0
 20
0.0
 30
0.0
  9
$PLIMCHECK
 70
     0
  9
$PEXTMIN
 10
1.000000000000000E+20
 20
1.000000000000000E+20
 30
1.000000000000000E+20
  9
$PEXTMAX
 10
-1.000000000000000E+20
 20
-1.000000000000000E+20
 30
-1.000000000000000E+20
  9
$PLIMMIN
 10
0.0
 20
0.0
  9
$PLIMMAX
 10
12.0
 20
9.0
  9
$UNITMODE
 70
     0
  9
$VISRETAIN
 70
     1
  9
$PLINEGEN
 70
     0
  9
$PSLTSCALE
 70
     1
  9
$TREEDEPTH
 70
  3020
  9
$CMLSTYLE
  2
Standard
  9
$CMLJUST
 70
     0
  9
$CMLSCALE
 40
1.0
  9
$PROXYGRAPHICS
 70
     1
  9
$MEASUREMENT
 70
     0
  9
$CELWEIGHT
370
    -1
  9
$ENDCAPS
280
     0
  9
$JOINSTYLE
280
     0
  9
$LWDISPLAY
290
     1
  9
$INSUNITS
 70
     0
  9
$HYPERLINKBASE
  1

  9
$STYLESHEET
  1

  9
$XEDIT
290
     1
  9
$CEPSNTYPE
380
     0
  9
$PSTYLEMODE
290
     1
  9
$FINGERPRINTGUID
  2
{357EBFAA-89F5-4A38-A7A3-76F4AD480EF7}
  9
$VERSIONGUID
  2
{FAEB1C32-E019-11D5-929B-00C0DF256EC4}
  9
$EXTNAMES
290
     1
  9
$PSVPSCALE
 40
0.0
  9
$OLESTARTUP
290
     0
  9
$SORTENTS
280
   127
  9
$INDEXCTL
280
     0
  9
$HIDETEXT
280
     1
  9
$XCLIPFRAME
290
     0
  9
$HALOGAP
280
     0
  9
$OBSCOLOR
 70
   257
  9
$OBSLTYPE
280
     0
  9
$INTERSECTIONDISPLAY
280
     0
  9
$INTERSECTIONCOLOR
 70
   257
  9
$DIMASSOC
280
     2
  9
$PROJECTNAME
  1

  0
ENDSEC
  0
SECTION
  2
CLASSES
  0
CLASS
  1
ACDBDICTIONARYWDFLT
  2
AcDbDictionaryWithDefault
  3
ObjectDBX Classes
 90
        0
 91
        4
280
     0
281
     0
  0
CLASS
  1
VISUALSTYLE
  2
AcDbVisualStyle
  3
ObjectDBX Classes
 90
     4095
 91
        4
280
     0
281
     0
  0
CLASS
  1
MATERIAL
  2
AcDbMaterial
  3
ObjectDBX Classes
 90
     1153
 91
        4
280
     0
281
     0
  0
CLASS
  1
SUN
  2
AcDbSun
  3
SCENEOE
 90
     1024
 91
        4
280
     0
281
     0
  0
ENDSEC
  0
SECTION
  2
TABLES
  0
TABLE
  2
VPORT
  5
8
330
0
100
AcDbSymbolTable
 70
     1
  0
VPORT
  5
29
330
8
100
AcDbSymbolTableRecord
100
AcDbViewportTableRecord
  2
*Active
 70
     0
 10
0.0
 20
0.0
 11
1.0
 21
1.0
 12
0.0
 22
0.0
 13
0.0
 23
0.0
 14
0.5
 24
0.5
 15
0.5
 25
0.5
 16
0.0
 26
0.0
 36
1.0
 17
1700.0
 27
-1100.0
 37
0.0
 40
2200.0
 41
1.545454545454545
 42
50.0
 43
0.0
 44
0.0
 50
0.0
 51
0.0
 71
     0
 72
   100
 73
     1
 74
     3
 75
     0
 76
     0
 77
     0
 78
     0
281
     0
 65
     1
110
0.0
120
0.0
130
0.0
111
1.0
121
0.0
131
0.0
112
0.0
122
1.0
132
0.0
 79
     0
146
0.0
  0
ENDTAB
  0
TABLE
  2
LTYPE
  5
5
330
0
100
AcDbSymbolTable
 70
     1
  0
LTYPE
  5
14
330
5
100
AcDbSymbolTableRecord
100
AcDbLinetypeTableRecord
  2
ByBlock
 70
     0
  3

 72
    65
 73
     0
 40
0.0
  0
LTYPE
  5
15
330
5
100
AcDbSymbolTableRecord
100
AcDbLinetypeTableRecord
  2
ByLayer
 70
     0
  3

 72
    65
 73
     0
 40
0.0
  0
LTYPE
  5
16
330
5
100
AcDbSymbolTableRecord
100
AcDbLinetypeTableRecord
  2
Continuous
 70
     0
  3
Solid line
 72
    65
 73
     0
 40
0.0
  0
ENDTAB
  0
TABLE
  2
LAYER
  5
2
330
0
100
AcDbSymbolTable
 70
     2
  0
LAYER
  5
10
330
2
100
AcDbSymbolTableRecord
100
AcDbLayerTableRecord
  2
0
 70
     0
 62
     7
  6
Continuous
370
    -3
390
F
  0
LAYER
  5
40
330
2
100
AcDbSymbolTableRecord
100
AcDbLayerTableRecord
  2
Layer 1
 70
     0
 62
     7
  6
Continuous
370
    -3
390
F
  0
ENDTAB
  0
TABLE
  2
STYLE
  5
3
330
0
100
AcDbSymbolTable
 70
     1
  0
STYLE
  5
11
330
3
100
AcDbSymbolTableRecord
100
AcDbTextStyleTableRecord
  2
Standard
 70
     0
 40
0.0
 41
1.0
 50
0.0
 71
     0
 42
0.2
  3
txt
  4

  0
ENDTAB
  0
TABLE
  2
VIEW
  5
6
330
0
100
AcDbSymbolTable
 70
     0
  0
ENDTAB
  0
TABLE
  2
UCS
  5
7
330
0
100
AcDbSymbolTable
 70
     0
  0
ENDTAB
  0
TABLE
  2
APPID
  5
9
330
0
100
AcDbSymbolTable
 70
     1
  0
APPID
  5
12
330
9
100
AcDbSymbolTableRecord
100
AcDbRegAppTableRecord
  2
ACAD
 70
     0
  0
ENDTAB
  0
TABLE
  2
DIMSTYLE
  5
A
330
0
100
AcDbSymbolTable
 70
     1
100
AcDbDimStyleTable
  0
DIMSTYLE
105
27
330
A
100
AcDbSymbolTableRecord
100
AcDbDimStyleTableRecord
  2
Standard
 70
     0
178
     0
340
11
  0
ENDTAB
  0
TABLE
  2
BLOCK_RECORD
  5
1
330
0
100
AcDbSymbolTable
 70
     8
  0
BLOCK_RECORD
  5
1F
330
1
100
AcDbSymbolTableRecord
100
AcDbBlockTableRecord
  2
*Model_Space
340
22
  0
BLOCK_RECORD
  5
1B
330
1
100
AcDbSymbolTableRecord
100
AcDbBlockTableRecord
  2
*Paper_Space
340
1E
  0
BLOCK_RECORD
  5
23
330
1
100
AcDbSymbolTableRecord
100
AcDbBlockTableRecord
  2
*Paper_Space0
340
26
  0
BLOCK_RECORD
  5
41
330
1
100
AcDbSymbolTableRecord
100
AcDbBlockTableRecord
  2
block 2
340
0
102
{BLKREFS
331
42
102
}
  0
BLOCK_RECORD
  5
45
330
1
100
AcDbSymbolTableRecord
100
AcDbBlockTableRecord
  2
block 3
340
0
102
{BLKREFS
331
46
102
}
  0
BLOCK_RECORD
  5
49
330
1
100
AcDbSymbolTableRecord
100
AcDbBlockTableRecord
  2
block 4
340
0
102
{BLKREFS
331
4A
102
}
  0
BLOCK_RECORD
  5
4F
330
1
100
AcDbSymbolTableRecord
100
AcDbBlockTableRecord
  2
block 5
340
0
102
{BLKREFS
331
50
102
}
  0
BLOCK_RECORD
  5
65
330
1
100
AcDbSymbolTableRecord
100
AcDbBlockTableRecord
  2
block 6
340
0
102
{BLKREFS
331
66
102
}
  0
BLOCK_RECORD
  5
77
330
1
100
AcDbSymbolTableRecord
100
AcDbBlockTableRecord
  2
block 7
340
0
102
{BLKREFS
331
78
102
}
  0
BLOCK_RECORD
  5
7D
330
1
100
AcDbSymbolTableRecord
100
AcDbBlockTableRecord
  2
block 8
340
0
102
{BLKREFS
331
7E
102
}
  0
ENDTAB
  0
ENDSEC
  0
SECTION
  2
BLOCKS
  0
BLOCK
  5
20
330
1F
100
AcDbEntity
  8
0
100
AcDbBlockBegin
  2
*Model_Space
 70
     0
 10
0.0
 20
0.0
 30
0.0
  3
*Model_Space
  1

  0
ENDBLK
  5
21
330
1F
100
AcDbEntity
  8
0
100
AcDbBlockEnd
  0
BLOCK
  5
1C
330
1B
100
AcDbEntity
 67
     1
  8
0
100
AcDbBlockBegin
  2
*Paper_Space
 70
     0
 10
0.0
 20
0.0
 30
0.0
  3
*Paper_Space
  1

  0
ENDBLK
  5
1D
330
1B
100
AcDbEntity
 67
     1
  8
0
100
AcDbBlockEnd
  0
BLOCK
  5
24
330
23
100
AcDbEntity
  8
0
100
AcDbBlockBegin
  2
*Paper_Space0
 70
     0
 10
0.0
 20
0.0
 30
0.0
  3
*Paper_Space0
  1

  0
ENDBLK
  5
25
330
23
100
AcDbEntity
  8
0
100
AcDbBlockEnd
  0
BLOCK
  5
43
330
41
100
AcDbEntity
  8
0
100
AcDbBlockBegin
  2
block 2
 70
     0
 10
0.0
 20
0.0
 30
0.0
  3
block 2
  1

  0
INSERT
  5
46
330
41
100
AcDbEntity
  8
Layer 1
100
AcDbBlockReference
  2
block 3
 10
0.0
 20
0.0
 30
0.0
  0
INSERT
  5
66
330
41
100
AcDbEntity
  8
Layer 1
100
AcDbBlockReference
  2
block 6
 10
0.0
 20
0.0
 30
0.0
  0
ENDBLK
  5
44
330
41
100
AcDbEntity
  8
0
100
AcDbBlockEnd
  0
BLOCK
  5
47
330
45
100
AcDbEntity
  8
0
100
AcDbBlockBegin
  2
block 3
 70
     0
 10
0.0
 20
0.0
 30
0.0
  3
block 3
  1

  0
INSERT
  5
4A
330
45
100
AcDbEntity
  8
Layer 1
100
AcDbBlockReference
  2
block 4
 10
0.0
 20
0.0
 30
0.0
  0
SPLINE
  5
63
330
45
100
AcDbEntity
  8
Layer 1
370
     0
100
AcDbSpline
210
0.0
220
0.0
230
1.0
 70
    11
 71
     3
 72
    32
 73
    28
 74
     0
 42
0.0000000001
 43
0.0000000001
 12
1.0
 22
0.0
 32
0.0
 13
1.0
 23
0.0
 33
0.0
 40
0.0
 40
0.0
 40
0.0
 40
0.0
 40
1.0
 40
1.0
 40
1.0
 40
2.0
 40
2.0
 40
2.0
 40
3.0
 40
3.0
 40
3.0
 40
4.0
 40
4.0
 40
4.0
 40
5.0
 40
5.0
 40
5.0
 40
6.0
 40
6.0
 40
6.0
 40
7.0
 40
7.0
 40
7.0
 40
8.0
 40
8.0
 40
8.0
 40
9.0
 40
9.0
 40
9.0
 40
9.0
 10
2345.3469
 20
-1227.685799999999
 30
0.0
 10
2345.3469
 20
-1307.3238
 30
0.0
 10
2280.816200000001
 20
-1373.3359
 30
0.0
 10
2199.6968
 20
-1373.3359
 30
0.0
 10
2199.6968
 20
-1373.3359
 30
0.0
 10
1087.684
 20
-1373.3359
 30
0.0
 10
1087.684
 20
-1373.3359
 30
0.0
 10
972.9494754212283
 20
-1373.3359
 30
0.0
 10
880.0298777685748
 20
-1280.418900000001
 30
0.0
 10
880.0298777685748
 20
-1165.7708
 30
0.0
 10
880.0298777685748
 20
-1037.76
 30
0.0
 10
995.3147748562333
 20
-939.0230000000001
 30
0.0
 10
1123.5095
 20
-961.2973000000002
 30
0.0
 10
1096.8686
 20
-779.3711999999996
 30
0.0
 10
1237.7908
 20
-617.902
 30
0.0
 10
1419.99
 20
-617.902
 30
0.0
 10
1581.634
 20
-617.902
 30
0.0
 10
1712.991400000001
 20
-745.8307999999997
 30
0.0
 10
1719.3827
 20
-905.3834999999999
 30
0.0
 10
1759.567500000001
 20
-874.8346000000001
 30
0.0
 10
1809.661400000001
 20
-856.7421000000004
 30
0.0
 10
1864.0301
 20
-856.7421000000004
 30
0.0
 10
2004.588100000001
 20
-856.7421000000004
 30
0.0
 10
2115.961600000001
 20
-977.4813999999997
 30
0.0
 10
2102.5062
 20
-1119.2209
 30
0.0
 10
2195.6944
 20
-1035.088299999999
 30
0.0
 10
2345.3469
 20
-1102.176299999999
 30
0.0
 10
2345.3469
 20
-1227.685799999999
 30
0.0
  0
HATCH
  5
64
330
45
100
AcDbEntity
  8
Layer 1
 62
   140
100
AcDbHatch
 10
0.0
 20
0.0
 30
0.0
210
0.0
220
0.0
230
1.0
  2
SOLID
 70
     1
 71
     0
 91
        1
 92
        1
 93
        1
 72
     4
 94
        3
 73
     0
 74
     1
 95
       32
 96
       28
 40
0.0
 40
0.0
 40
0.0
 40
0.0
 40
1.0
 40
1.0
 40
1.0
 40
2.0
 40
2.0
 40
2.0
 40
3.0
 40
3.0
 40
3.0
 40
4.0
 40
4.0
 40
4.0
 40
5.0
 40
5.0
 40
5.0
 40
6.0
 40
6.0
 40
6.0
 40
7.0
 40
7.0
 40
7.0
 40
8.0
 40
8.0
 40
8.0
 40
9.0
 40
9.0
 40
9.0
 40
9.0
 10
2345.3469
 20
-1227.685799999999
 10
2345.3469
 20
-1307.3238
 10
2280.816200000001
 20
-1373.3359
 10
2199.6968
 20
-1373.3359
 10
2199.6968
 20
-1373.3359
 10
1087.684
 20
-1373.3359
 10
1087.684
 20
-1373.3359
 10
972.9494754212283
 20
-1373.3359
 10
880.0298777685748
 20
-1280.418900000001
 10
880.0298777685748
 20
-1165.7708
 10
880.0298777685748
 20
-1037.76
 10
995.3147748562333
 20
-939.0230000000001
 10
1123.5095
 20
-961.2973000000002
 10
1096.8686
 20
-779.3711999999996
 10
1237.7908
 20
-617.902
 10
1419.99
 20
-617.902
 10
1581.634
 20
-617.902
 10
1712.991400000001
 20
-745.8307999999997
 10
1719.3827
 20
-905.3834999999999
 10
1759.567500000001
 20
-874.8346000000001
 10
1809.661400000001
 20
-856.7421000000004
 10
1864.0301
 20
-856.7421000000004
 10
2004.588100000001
 20
-856.7421000000004
 10
2115.961600000001
 20
-977.4813999999997
 10
2102.5062
 20
-1119.2209
 10
2195.6944
 20
-1035.088299999999
 10
2345.3469
 20
-1102.176299999999
 10
2345.3469
 20
-1227.685799999999
 97
        0
 75
     2
 76
     1
 98
        0
  0
ENDBLK
  5
48
330
45
100
AcDbEntity
  8
0
100
AcDbBlockEnd
  0
BLOCK
  5
4B
330
49
100
AcDbEntity
  8
0
100
AcDbBlockBegin
  2
block 4
 70
     0
 10
0.0
 20
0.0
 30
0.0
  3
block 4
  1

  0
SPLINE
  5
4D
330
49
100
AcDbEntity
  8
Layer 1
370
     0
100
AcDbSpline
210
0.0
220
0.0
230
1.0
 70
    11
 71
     3
 72
    26
 73
    22
 74
     0
 42
0.0000000001
 43
0.0000000001
 12
1.0
 22
0.0
 32
0.0
 13
1.0
 23
0.0
 33
0.0
 40
0.0
 40
0.0
 40
0.0
 40
0.0
 40
1.0
 40
1.0
 40
1.0
 40
2.0
 40
2.0
 40
2.0
 40
3.0
 40
3.0
 40
3.0
 40
4.0
 40
4.0
 40
4.0
 40
5.0
 40
5.0
 40
5.0
 40
6.0
 40
6.0
 40
6.0
 40
7.0
 40
7.0
 40
7.0
 40
7.0
 10
2264.067300000001
 20
-894.4733999999999
 30
0.0
 10
2264.067300000001
 20
-964.0249000000003
 30
0.0
 10
2242.793900000001
 20
-1028.5772
 30
0.0
 10
2206.2448
 20
-1082.036599999999
 30
0.0
 10
2170.512200000001
 20
-1079.9452
 30
0.0
 10
2133.4218
 20
-1091.3095
 30
0.0
 10
2102.5062
 20
-1119.2209
 30
0.0
 10
2115.961600000001
 20
-977.4813999999997
 30
0.0
 10
2004.588100000001
 20
-856.7421000000004
 30
0.0
 10
1864.0301
 20
-856.7421000000004
 30
0.0
 10
1809.661400000001
 20
-856.7421000000004
 30
0.0
 10
1759.567500000001
 20
-874.8346000000001
 30
0.0
 10
1719.3827
 20
-905.3834999999999
 30
0.0
 10
1716.5641
 20
-835.0128999999997
 30
0.0
 10
1689.4709
 20
-770.9165000000003
 30
0.0
 10
1646.2855
 20
-721.1849000000002
 30
0.0
 10
1704.742099999999
 20
-625.2664000000004
 30
0.0
 10
1810.3002
 20
-561.2601000000004
 30
0.0
 10
1930.8547
 20
-561.2601000000004
 30
0.0
 10
2114.874
 20
-561.2601000000004
 30
0.0
 10
2264.067300000001
 20
-710.4567999999999
 30
0.0
 10
2264.067300000001
 20
-894.4733999999999
 30
0.0
  0
HATCH
  5
4E
330
49
100
AcDbEntity
  8
Layer 1
 62
    40
100
AcDbHatch
 10
0.0
 20
0.0
 30
0.0
210
0.0
220
0.0
230
1.0
  2
SOLID
 70
     1
 71
     0
 91
        1
 92
        1
 93
        1
 72
     4
 94
        3
 73
     0
 74
     1
 95
       26
 96
       22
 40
0.0
 40
0.0
 40
0.0
 40
0.0
 40
1.0
 40
1.0
 40
1.0
 40
2.0
 40
2.0
 40
2.0
 40
3.0
 40
3.0
 40
3.0
 40
4.0
 40
4.0
 40
4.0
 40
5.0
 40
5.0
 40
5.0
 40
6.0
 40
6.0
 40
6.0
 40
7.0
 40
7.0
 40
7.0
 40
7.0
 10
2264.067300000001
 20
-894.4733999999999
 10
2264.067300000001
 20
-964.0249000000003
 10
2242.793900000001
 20
-1028.5772
 10
2206.2448
 20
-1082.036599999999
 10
2170.512200000001
 20
-1079.9452
 10
2133.4218
 20
-1091.3095
 10
2102.5062
 20
-1119.2209
 10
2115.961600000001
 20
-977.4813999999997
 10
2004.588100000001
 20
-856.7421000000004
 10
1864.0301
 20
-856.7421000000004
 10
1809.661400000001
 20
-856.7421000000004
 10
1759.567500000001
 20
-874.8346000000001
 10
1719.3827
 20
-905.3834999999999
 10
1716.5641
 20
-835.0128999999997
 10
1689.4709
 20
-770.9165000000003
 10
1646.2855
 20
-721.1849000000002
 10
1704.742099999999
 20
-625.2664000000004
 10
1810.3002
 20
-561.2601000000004
 10
1930.8547
 20
-561.2601000000004
 10
2114.874
 20
-561.2601000000004
 10
2264.067300000001
 20
-710.4567999999999
 10
2264.067300000001
 20
-894.4733999999999
 97
        0
 75
     2
 76
     1
 98
        0
  0
INSERT
  5
50
330
49
100
AcDbEntity
  8
Layer 1
100
AcDbBlockReference
  2
block 5
 10
0.0
 20
0.0
 30
0.0
  0
ENDBLK
  5
4C
330
49
100
AcDbEntity
  8
0
100
AcDbBlockEnd
  0
BLOCK
  5
51
330
4F
100
AcDbEntity
  8
0
100
AcDbBlockBegin
  2
block 5
 70
     0
 10
0.0
 20
0.0
 30
0.0
  3
block 5
  1

  0
SPLINE
  5
53
330
4F
100
AcDbEntity
  8
Layer 1
370
     0
100
AcDbSpline
210
0.0
220
0.0
230
1.0
 70
    11
 71
     3
 72
    23
 73
    19
 74
     0
 42
0.0000000001
 43
0.0000000001
 12
1.0
 22
0.0
 32
0.0
 13
1.0
 23
0.0
 33
0.0
 40
0.0
 40
0.0
 40
0.0
 40
0.0
 40
1.0
 40
1.0
 40
1.0
 40
2.0
 40
2.0
 40
2.0
 40
3.0
 40
3.0
 40
3.0
 40
4.0
 40
4.0
 40
4.0
 40
5.0
 40
5.0
 40
5.0
 40
6.0
 40
6.0
 40
6.0
 40
6.0
 10
1930.853800000001
 20
-490.7786999999998
 30
0.0
 10
1920.901600000001
 20
-490.7786999999998
 30
0.0
 10
1912.8325
 20
-482.7096000000001
 30
0.0
 10
1912.8325
 20
-472.7574000000004
 30
0.0
 10
1912.8325
 20
-472.7574000000004
 30
0.0
 10
1912.8325
 20
-323.4084000000003
 30
0.0
 10
1912.8325
 20
-323.4084000000003
 30
0.0
 10
1912.8325
 20
-313.4561000000003
 30
0.0
 10
1920.901600000001
 20
-305.3869999999997
 30
0.0
 10
1930.853800000001
 20
-305.3869999999997
 30
0.0
 10
1940.8061
 20
-305.3869999999997
 30
0.0
 10
1948.8752
 20
-313.4561000000003
 30
0.0
 10
1948.8752
 20
-323.4084000000003
 30
0.0
 10
1948.8752
 20
-323.4084000000003
 30
0.0
 10
1948.8752
 20
-472.7574000000004
 30
0.0
 10
1948.8752
 20
-472.7574000000004
 30
0.0
 10
1948.8752
 20
-482.7096000000001
 30
0.0
 10
1940.8061
 20
-490.7786999999998
 30
0.0
 10
1930.853800000001
 20
-490.7786999999998
 30
0.0
  0
HATCH
  5
54
330
4F
100
AcDbEntity
  8
Layer 1
 62
    40
100
AcDbHatch
 10
0.0
 20
0.0
 30
0.0
210
0.0
220
0.0
230
1.0
  2
SOLID
 70
     1
 71
     0
 91
        1
 92
        1
 93
        1
 72
     4
 94
        3
 73
     0
 74
     1
 95
       23
 96
       19
 40
0.0
 40
0.0
 40
0.0
 40
0.0
 40
1.0
 40
1.0
 40
1.0
 40
2.0
 40
2.0
 40
2.0
 40
3.0
 40
3.0
 40
3.0
 40
4.0
 40
4.0
 40
4.0
 40
5.0
 40
5.0
 40
5.0
 40
6.0
 40
6.0
 40
6.0
 40
6.0
 10
1930.853800000001
 20
-490.7786999999998
 10
1920.901600000001
 20
-490.7786999999998
 10
1912.8325
 20
-482.7096000000001
 10
1912.8325
 20
-472.7574000000004
 10
1912.8325
 20
-472.7574000000004
 10
1912.8325
 20
-323.4084000000003
 10
1912.8325
 20
-323.4084000000003
 10
1912.8325
 20
-313.4561000000003
 10
1920.901600000001
 20
-305.3869999999997
 10
1930.853800000001
 20
-305.3869999999997
 10
1940.8061
 20
-305.3869999999997
 10
1948.8752
 20
-313.4561000000003
 10
1948.8752
 20
-323.4084000000003
 10
1948.8752
 20
-323.4084000000003
 10
1948.8752
 20
-472.7574000000004
 10
1948.8752
 20
-472.7574000000004
 10
1948.8752
 20
-482.7096000000001
 10
1940.8061
 20
-490.7786999999998
 10
1930.853800000001
 20
-490.7786999999998
 97
        0
 75
     2
 76
     1
 98
        0
  0
SPLINE
  5
55
330
4F
100
AcDbEntity
  8
Layer 1
370
     0
100
AcDbSpline
210
0.0
220
0.0
230
1.0
 70
    11
 71
     3
 72
    23
 73
    19
 74
     0
 42
0.0000000001
 43
0.0000000001
 12
1.0
 22
0.0
 32
0.0
 13
1.0
 23
0.0
 33
0.0
 40
0.0
 40
0.0
 40
0.0
 40
0.0
 40
1.0
 40
1.0
 40
1.0
 40
2.0
 40
2.0
 40
2.0
 40
3.0
 40
3.0
 40
3.0
 40
4.0
 40
4.0
 40
4.0
 40
5.0
 40
5.0
 40
5.0
 40
6.0
 40
6.0
 40
6.0
 40
6.0
 10
1752.787899999999
 20
-511.6419999999998
 30
0.0
 10
1752.787899999999
 20
-511.6419999999998
 30
0.0
 10
1729.042100000001
 20
-454.3972000000003
 30
0.0
 10
1729.042100000001
 20
-454.3972000000003
 30
0.0
 10
1725.2279
 20
-445.2064
 30
0.0
 10
1729.588100000001
 20
-434.6602999999996
 30
0.0
 10
1738.7835
 20
-430.8496999999998
 30
0.0
 10
1747.974399999999
 20
-427.0355
 30
0.0
 10
1758.525
 20
-431.3957
 30
0.0
 10
1762.331099999999
 20
-440.5910999999996
 30
0.0
 10
1762.331099999999
 20
-440.5910999999996
 30
0.0
 10
1786.076000000001
 20
-497.8357999999998
 30
0.0
 10
1786.076000000001
 20
-497.8357999999998
 30
0.0
 10
1789.891100000001
 20
-507.0267000000003
 30
0.0
 10
1785.5308
 20
-517.5727999999999
 30
0.0
 10
1776.3354
 20
-521.3833999999997
 30
0.0
 10
1767.130999999999
 20
-525.2047999999995
 30
0.0
 10
1756.5895
 20
-520.8238000000001
 30
0.0
 10
1752.787899999999
 20
-511.6419999999998
 30
0.0
  0
HATCH
  5
56
330
4F
100
AcDbEntity
  8
Layer 1
 62
    40
100
AcDbHatch
 10
0.0
 20
0.0
 30
0.0
210
0.0
220
0.0
230
1.0
  2
SOLID
 70
     1
 71
     0
 91
        1
 92
        1
 93
        1
 72
     4
 94
        3
 73
     0
 74
     1
 95
       23
 96
       19
 40
0.0
 40
0.0
 40
0.0
 40
0.0
 40
1.0
 40
1.0
 40
1.0
 40
2.0
 40
2.0
 40
2.0
 40
3.0
 40
3.0
 40
3.0
 40
4.0
 40
4.0
 40
4.0
 40
5.0
 40
5.0
 40
5.0
 40
6.0
 40
6.0
 40
6.0
 40
6.0
 10
1752.787899999999
 20
-511.6419999999998
 10
1752.787899999999
 20
-511.6419999999998
 10
1729.042100000001
 20
-454.3972000000003
 10
1729.042100000001
 20
-454.3972000000003
 10
1725.2279
 20
-445.2064
 10
1729.588100000001
 20
-434.6602999999996
 10
1738.7835
 20
-430.8496999999998
 10
1747.974399999999
 20
-427.0355
 10
1758.525
 20
-431.3957
 10
1762.331099999999
 20
-440.5910999999996
 10
1762.331099999999
 20
-440.5910999999996
 10
1786.076000000001
 20
-497.8357999999998
 10
1786.076000000001
 20
-497.8357999999998
 10
1789.891100000001
 20
-507.0267000000003
 10
1785.5308
 20
-517.5727999999999
 10
1776.3354
 20
-521.3833999999997
 10
1767.130999999999
 20
-525.2047999999995
 10
1756.5895
 20
-520.8238000000001
 10
1752.787899999999
 20
-511.6419999999998
 97
        0
 75
     2
 76
     1
 98
        0
  0
SPLINE
  5
57
330
4F
100
AcDbEntity
  8
Layer 1
370
     0
100
AcDbSpline
210
0.0
220
0.0
230
1.0
 70
    11
 71
     3
 72
    23
 73
    19
 74
     0
 42
0.0000000001
 43
0.0000000001
 12
1.0
 22
0.0
 32
0.0
 13
1.0
 23
0.0
 33
0.0
 40
0.0
 40
0.0
 40
0.0
 40
0.0
 40
1.0
 40
1.0
 40
1.0
 40
2.0
 40
2.0
 40
2.0
 40
3.0
 40
3.0
 40
3.0
 40
4.0
 40
4.0
 40
4.0
 40
5.0
 40
5.0
 40
5.0
 40
6.0
 40
6.0
 40
6.0
 40
6.0
 10
2370.8977
 20
-1096.2401
 30
0.0
 10
2370.8977
 20
-1096.2401
 30
0.0
 10
2313.653
 20
-1072.5781
 30
0.0
 10
2313.653
 20
-1072.5781
 30
0.0
 10
2304.457399999999
 20
-1068.7765
 30
0.0
 10
2300.080099999999
 20
-1058.2394
 30
0.0
 10
2303.885399999999
 20
-1049.0395
 30
0.0
 10
2307.686900000001
 20
-1039.8523
 30
0.0
 10
2318.2194
 20
-1035.4614
 30
0.0
 10
2327.4238
 20
-1039.272
 30
0.0
 10
2327.4238
 20
-1039.272
 30
0.0
 10
2384.669400000001
 20
-1062.934
 30
0.0
 10
2384.669400000001
 20
-1062.934
 30
0.0
 10
2393.864799999999
 20
-1066.7347
 30
0.0
 10
2398.242200000001
 20
-1077.2726
 30
0.0
 10
2394.436099999999
 20
-1086.4725
 30
0.0
 10
2390.6327
 20
-1095.677799999999
 30
0.0
 10
2380.079600000001
 20
-1100.0417
 30
0.0
 10
2370.8977
 20
-1096.2401
 30
0.0
  0
HATCH
  5
58
330
4F
100
AcDbEntity
  8
Layer 1
 62
    40
100
AcDbHatch
 10
0.0
 20
0.0
 30
0.0
210
0.0
220
0.0
230
1.0
  2
SOLID
 70
     1
 71
     0
 91
        1
 92
        1
 93
        1
 72
     4
 94
        3
 73
     0
 74
     1
 95
       23
 96
       19
 40
0.0
 40
0.0
 40
0.0
 40
0.0
 40
1.0
 40
1.0
 40
1.0
 40
2.0
 40
2.0
 40
2.0
 40
3.0
 40
3.0
 40
3.0
 40
4.0
 40
4.0
 40
4.0
 40
5.0
 40
5.0
 40
5.0
 40
6.0
 40
6.0
 40
6.0
 40
6.0
 10
2370.8977
 20
-1096.2401
 10
2370.8977
 20
-1096.2401
 10
2313.653
 20
-1072.5781
 10
2313.653
 20
-1072.5781
 10
2304.457399999999
 20
-1068.7765
 10
2300.080099999999
 20
-1058.2394
 10
2303.885399999999
 20
-1049.0395
 10
2307.686900000001
 20
-1039.8523
 10
2318.2194
 20
-1035.4614
 10
2327.4238
 20
-1039.272
 10
2327.4238
 20
-1039.272
 10
2384.669400000001
 20
-1062.934
 10
2384.669400000001
 20
-1062.934
 10
2393.864799999999
 20
-1066.7347
 10
2398.242200000001
 20
-1077.2726
 10
2394.436099999999
 20
-1086.4725
 10
2390.6327
 20
-1095.677799999999
 10
2380.079600000001
 20
-1100.0417
 10
2370.8977
 20
-1096.2401
 97
        0
 75
     2
 76
     1
 98
        0
  0
SPLINE
  5
59
330
4F
100
AcDbEntity
  8
Layer 1
370
     0
100
AcDbSpline
210
0.0
220
0.0
230
1.0
 70
    11
 71
     3
 72
    23
 73
    19
 74
     0
 42
0.0000000001
 43
0.0000000001
 12
1.0
 22
0.0
 32
0.0
 13
1.0
 23
0.0
 33
0.0
 40
0.0
 40
0.0
 40
0.0
 40
0.0
 40
1.0
 40
1.0
 40
1.0
 40
2.0
 40
2.0
 40
2.0
 40
3.0
 40
3.0
 40
3.0
 40
4.0
 40
4.0
 40
4.0
 40
5.0
 40
5.0
 40
5.0
 40
6.0
 40
6.0
 40
6.0
 40
6.0
 10
2303.8945
 20
-739.9838
 30
0.0
 10
2300.080099999999
 20
-730.7929000000004
 30
0.0
 10
2304.439399999999
 20
-720.2469000000001
 30
0.0
 10
2313.635700000001
 20
-716.4372000000003
 30
0.0
 10
2313.635700000001
 20
-716.4372000000003
 30
0.0
 10
2370.8804
 20
-692.6913999999997
 30
0.0
 10
2370.8804
 20
-692.6913999999997
 30
0.0
 10
2380.0713
 20
-688.8725999999997
 30
0.0
 10
2390.622100000001
 20
-693.2374
 30
0.0
 10
2394.428
 20
-702.4328000000005
 30
0.0
 10
2398.242200000001
 20
-711.6237000000001
 30
0.0
 10
2393.8819
 20
-722.1697000000004
 30
0.0
 10
2384.6865
 20
-725.9794000000002
 30
0.0
 10
2384.6865
 20
-725.9794000000002
 30
0.0
 10
2327.441800000001
 20
-749.7251999999999
 30
0.0
 10
2327.441800000001
 20
-749.7251999999999
 30
0.0
 10
2318.238300000001
 20
-753.5466999999999
 30
0.0
 10
2307.695900000001
 20
-749.1656999999996
 30
0.0
 10
2303.8945
 20
-739.9838
 30
0.0
  0
HATCH
  5
5A
330
4F
100
AcDbEntity
  8
Layer 1
 62
    40
100
AcDbHatch
 10
0.0
 20
0.0
 30
0.0
210
0.0
220
0.0
230
1.0
  2
SOLID
 70
     1
 71
     0
 91
        1
 92
        1
 93
        1
 72
     4
 94
        3
 73
     0
 74
     1
 95
       23
 96
       19
 40
0.0
 40
0.0
 40
0.0
 40
0.0
 40
1.0
 40
1.0
 40
1.0
 40
2.0
 40
2.0
 40
2.0
 40
3.0
 40
3.0
 40
3.0
 40
4.0
 40
4.0
 40
4.0
 40
5.0
 40
5.0
 40
5.0
 40
6.0
 40
6.0
 40
6.0
 40
6.0
 10
2303.8945
 20
-739.9838
 10
2300.080099999999
 20
-730.7929000000004
 10
2304.439399999999
 20
-720.2469000000001
 10
2313.635700000001
 20
-716.4372000000003
 10
2313.635700000001
 20
-716.4372000000003
 10
2370.8804
 20
-692.6913999999997
 10
2370.8804
 20
-692.6913999999997
 10
2380.0713
 20
-688.8725999999997
 10
2390.622100000001
 20
-693.2374
 10
2394.428
 20
-702.4328000000005
 10
2398.242200000001
 20
-711.6237000000001
 10
2393.8819
 20
-722.1697000000004
 10
2384.6865
 20
-725.9794000000002
 10
2384.6865
 20
-725.9794000000002
 10
2327.441800000001
 20
-749.7251999999999
 10
2327.441800000001
 20
-749.7251999999999
 10
2318.238300000001
 20
-753.5466999999999
 10
2307.695900000001
 20
-749.1656999999996
 10
2303.8945
 20
-739.9838
 97
        0
 75
     2
 76
     1
 98
        0
  0
SPLINE
  5
5B
330
4F
100
AcDbEntity
  8
Layer 1
370
     0
100
AcDbSpline
210
0.0
220
0.0
230
1.0
 70
    11
 71
     3
 72
    23
 73
    19
 74
     0
 42
0.0000000001
 43
0.0000000001
 12
1.0
 22
0.0
 32
0.0
 13
1.0
 23
0.0
 33
0.0
 40
0.0
 40
0.0
 40
0.0
 40
0.0
 40
1.0
 40
1.0
 40
1.0
 40
2.0
 40
2.0
 40
2.0
 40
3.0
 40
3.0
 40
3.0
 40
4.0
 40
4.0
 40
4.0
 40
5.0
 40
5.0
 40
5.0
 40
6.0
 40
6.0
 40
6.0
 40
6.0
 10
2085.3722
 20
-521.3833999999997
 30
0.0
 10
2076.177
 20
-517.5727999999999
 30
0.0
 10
2071.8166
 20
-507.0267000000003
 30
0.0
 10
2075.6317
 20
-497.8357999999998
 30
0.0
 10
2075.6317
 20
-497.8357999999998
 30
0.0
 10
2099.3766
 20
-440.5910999999996
 30
0.0
 10
2099.3766
 20
-440.5910999999996
 30
0.0
 10
2103.182700000001
 20
-431.3957
 30
0.0
 10
2113.7335
 20
-427.04
 30
0.0
 10
2122.9244
 20
-430.8496999999998
 30
0.0
 10
2132.119500000001
 20
-434.6602999999996
 30
0.0
 10
2136.479800000001
 20
-445.2064
 30
0.0
 10
2132.6656
 20
-454.3972000000003
 30
0.0
 10
2132.6656
 20
-454.3972000000003
 30
0.0
 10
2108.9198
 20
-511.6419999999998
 30
0.0
 10
2108.9198
 20
-511.6419999999998
 30
0.0
 10
2105.1155
 20
-520.8292000000001
 30
0.0
 10
2094.570299999999
 20
-525.2021000000004
 30
0.0
 10
2085.3722
 20
-521.3833999999997
 30
0.0
  0
HATCH
  5
5C
330
4F
100
AcDbEntity
  8
Layer 1
 62
    40
100
AcDbHatch
 10
0.0
 20
0.0
 30
0.0
210
0.0
220
0.0
230
1.0
  2
SOLID
 70
     1
 71
     0
 91
        1
 92
        1
 93
        1
 72
     4
 94
        3
 73
     0
 74
     1
 95
       23
 96
       19
 40
0.0
 40
0.0
 40
0.0
 40
0.0
 40
1.0
 40
1.0
 40
1.0
 40
2.0
 40
2.0
 40
2.0
 40
3.0
 40
3.0
 40
3.0
 40
4.0
 40
4.0
 40
4.0
 40
5.0
 40
5.0
 40
5.0
 40
6.0
 40
6.0
 40
6.0
 40
6.0
 10
2085.3722
 20
-521.3833999999997
 10
2076.177
 20
-517.5727999999999
 10
2071.8166
 20
-507.0267000000003
 10
2075.6317
 20
-497.8357999999998
 10
2075.6317
 20
-497.8357999999998
 10
2099.3766
 20
-440.5910999999996
 10
2099.3766
 20
-440.5910999999996
 10
2103.182700000001
 20
-431.3957
 10
2113.7335
 20
-427.04
 10
2122.9244
 20
-430.8496999999998
 10
2132.119500000001
 20
-434.6602999999996
 10
2136.479800000001
 20
-445.2064
 10
2132.6656
 20
-454.3972000000003
 10
2132.6656
 20
-454.3972000000003
 10
2108.9198
 20
-511.6419999999998
 10
2108.9198
 20
-511.6419999999998
 10
2105.1155
 20
-520.8292000000001
 10
2094.570299999999
 20
-525.2021000000004
 10
2085.3722
 20
-521.3833999999997
 97
        0
 75
     2
 76
     1
 98
        0
  0
SPLINE
  5
5D
330
4F
100
AcDbEntity
  8
Layer 1
370
     0
100
AcDbSpline
210
0.0
220
0.0
230
1.0
 70
    11
 71
     3
 72
    23
 73
    19
 74
     0
 42
0.0000000001
 43
0.0000000001
 12
1.0
 22
0.0
 32
0.0
 13
1.0
 23
0.0
 33
0.0
 40
0.0
 40
0.0
 40
0.0
 40
0.0
 40
1.0
 40
1.0
 40
1.0
 40
2.0
 40
2.0
 40
2.0
 40
3.0
 40
3.0
 40
3.0
 40
4.0
 40
4.0
 40
4.0
 40
5.0
 40
5.0
 40
5.0
 40
6.0
 40
6.0
 40
6.0
 40
6.0
 10
1619.8933
 20
-609.0219999999999
 30
0.0
 10
1619.8933
 20
-609.0219999999999
 30
0.0
 10
1514.2784
 20
-503.4062000000004
 30
0.0
 10
1514.2784
 20
-503.4062000000004
 30
0.0
 10
1507.2384
 20
-496.3707000000004
 30
0.0
 10
1507.2384
 20
-484.9578000000001
 30
0.0
 10
1514.2784
 20
-477.9223000000002
 30
0.0
 10
1521.3085
 20
-470.8831
 30
0.0
 10
1532.7304
 20
-470.8831
 30
0.0
 10
1539.761500000001
 20
-477.9223000000002
 30
0.0
 10
1539.761500000001
 20
-477.9223000000002
 30
0.0
 10
1645.3774
 20
-583.5380000000005
 30
0.0
 10
1645.3774
 20
-583.5380000000005
 30
0.0
 10
1652.4163
 20
-590.5735000000004
 30
0.0
 10
1652.4163
 20
-601.9863999999998
 30
0.0
 10
1645.3774
 20
-609.0219999999999
 30
0.0
 10
1638.3462
 20
-616.0610999999999
 30
0.0
 10
1626.924300000001
 20
-616.0610999999999
 30
0.0
 10
1619.8933
 20
-609.0219999999999
 30
0.0
  0
HATCH
  5
5E
330
4F
100
AcDbEntity
  8
Layer 1
 62
    40
100
AcDbHatch
 10
0.0
 20
0.0
 30
0.0
210
0.0
220
0.0
230
1.0
  2
SOLID
 70
     1
 71
     0
 91
        1
 92
        1
 93
        1
 72
     4
 94
        3
 73
     0
 74
     1
 95
       23
 96
       19
 40
0.0
 40
0.0
 40
0.0
 40
0.0
 40
1.0
 40
1.0
 40
1.0
 40
2.0
 40
2.0
 40
2.0
 40
3.0
 40
3.0
 40
3.0
 40
4.0
 40
4.0
 40
4.0
 40
5.0
 40
5.0
 40
5.0
 40
6.0
 40
6.0
 40
6.0
 40
6.0
 10
1619.8933
 20
-609.0219999999999
 10
1619.8933
 20
-609.0219999999999
 10
1514.2784
 20
-503.4062000000004
 10
1514.2784
 20
-503.4062000000004
 10
1507.2384
 20
-496.3707000000004
 10
1507.2384
 20
-484.9578000000001
 10
1514.2784
 20
-477.9223000000002
 10
1521.3085
 20
-470.8831
 10
1532.7304
 20
-470.8831
 10
1539.761500000001
 20
-477.9223000000002
 10
1539.761500000001
 20
-477.9223000000002
 10
1645.3774
 20
-583.5380000000005
 10
1645.3774
 20
-583.5380000000005
 10
1652.4163
 20
-590.5735000000004
 10
1652.4163
 20
-601.9863999999998
 10
1645.3774
 20
-609.0219999999999
 10
1638.3462
 20
-616.0610999999999
 10
1626.924300000001
 20
-616.0610999999999
 10
1619.8933
 20
-609.0219999999999
 97
        0
 75
     2
 76
     1
 98
        0
  0
SPLINE
  5
5F
330
4F
100
AcDbEntity
  8
Layer 1
370
     0
100
AcDbSpline
210
0.0
220
0.0
230
1.0
 70
    11
 71
     3
 72
    23
 73
    19
 74
     0
 42
0.0000000001
 43
0.0000000001
 12
1.0
 22
0.0
 32
0.0
 13
1.0
 23
0.0
 33
0.0
 40
0.0
 40
0.0
 40
0.0
 40
0.0
 40
1.0
 40
1.0
 40
1.0
 40
2.0
 40
2.0
 40
2.0
 40
3.0
 40
3.0
 40
3.0
 40
4.0
 40
4.0
 40
4.0
 40
5.0
 40
5.0
 40
5.0
 40
6.0
 40
6.0
 40
6.0
 40
6.0
 10
2501.9488
 20
-912.5244000000002
 30
0.0
 10
2501.9488
 20
-912.5244000000002
 30
0.0
 10
2352.5996
 20
-912.5244000000002
 30
0.0
 10
2352.5996
 20
-912.5244000000002
 30
0.0
 10
2342.647300000001
 20
-912.5244000000002
 30
0.0
 10
2334.578300000001
 20
-904.4553999999998
 30
0.0
 10
2334.578300000001
 20
-894.5030999999999
 30
0.0
 10
2334.578300000001
 20
-884.5508
 30
0.0
 10
2342.647300000001
 20
-876.4817999999996
 30
0.0
 10
2352.5996
 20
-876.4817999999996
 30
0.0
 10
2352.5996
 20
-876.4817999999996
 30
0.0
 10
2501.9488
 20
-876.4817999999996
 30
0.0
 10
2501.9488
 20
-876.4817999999996
 30
0.0
 10
2511.900900000001
 20
-876.4817999999996
 30
0.0
 10
2519.9701
 20
-884.5508
 30
0.0
 10
2519.9701
 20
-894.5030999999999
 30
0.0
 10
2519.9701
 20
-904.4553999999998
 30
0.0
 10
2511.900900000001
 20
-912.5244000000002
 30
0.0
 10
2501.9488
 20
-912.5244000000002
 30
0.0
  0
HATCH
  5
60
330
4F
100
AcDbEntity
  8
Layer 1
 62
    40
100
AcDbHatch
 10
0.0
 20
0.0
 30
0.0
210
0.0
220
0.0
230
1.0
  2
SOLID
 70
     1
 71
     0
 91
        1
 92
        1
 93
        1
 72
     4
 94
        3
 73
     0
 74
     1
 95
       23
 96
       19
 40
0.0
 40
0.0
 40
0.0
 40
0.0
 40
1.0
 40
1.0
 40
1.0
 40
2.0
 40
2.0
 40
2.0
 40
3.0
 40
3.0
 40
3.0
 40
4.0
 40
4.0
 40
4.0
 40
5.0
 40
5.0
 40
5.0
 40
6.0
 40
6.0
 40
6.0
 40
6.0
 10
2501.9488
 20
-912.5244000000002
 10
2501.9488
 20
-912.5244000000002
 10
2352.5996
 20
-912.5244000000002
 10
2352.5996
 20
-912.5244000000002
 10
2342.647300000001
 20
-912.5244000000002
 10
2334.578300000001
 20
-904.4553999999998
 10
2334.578300000001
 20
-894.5030999999999
 10
2334.578300000001
 20
-884.5508
 10
2342.647300000001
 20
-876.4817999999996
 10
2352.5996
 20
-876.4817999999996
 10
2352.5996
 20
-876.4817999999996
 10
2501.9488
 20
-876.4817999999996
 10
2501.9488
 20
-876.4817999999996
 10
2511.900900000001
 20
-876.4817999999996
 10
2519.9701
 20
-884.5508
 10
2519.9701
 20
-894.5030999999999
 10
2519.9701
 20
-904.4553999999998
 10
2511.900900000001
 20
-912.5244000000002
 10
2501.9488
 20
-912.5244000000002
 97
        0
 75
     2
 76
     1
 98
        0
  0
SPLINE
  5
61
330
4F
100
AcDbEntity
  8
Layer 1
370
     0
100
AcDbSpline
210
0.0
220
0.0
230
1.0
 70
    11
 71
     3
 72
    23
 73
    19
 74
     0
 42
0.0000000001
 43
0.0000000001
 12
1.0
 22
0.0
 32
0.0
 13
1.0
 23
0.0
 33
0.0
 40
0.0
 40
0.0
 40
0.0
 40
0.0
 40
1.0
 40
1.0
 40
1.0
 40
2.0
 40
2.0
 40
2.0
 40
3.0
 40
3.0
 40
3.0
 40
4.0
 40
4.0
 40
4.0
 40
5.0
 40
5.0
 40
5.0
 40
6.0
 40
6.0
 40
6.0
 40
6.0
 10
2216.3305
 20
-609.0219999999999
 30
0.0
 10
2209.291499999999
 20
-601.9863999999998
 30
0.0
 10
2209.291499999999
 20
-590.5735000000004
 30
0.0
 10
2216.3305
 20
-583.5380000000005
 30
0.0
 10
2216.3305
 20
-583.5380000000005
 30
0.0
 10
2321.9462
 20
-477.9223000000002
 30
0.0
 10
2321.9462
 20
-477.9223000000002
 30
0.0
 10
2328.977200000001
 20
-470.8831
 30
0.0
 10
2340.3992
 20
-470.8831
 30
0.0
 10
2347.4293
 20
-477.9223000000002
 30
0.0
 10
2354.469300000001
 20
-484.9578000000001
 30
0.0
 10
2354.469300000001
 20
-496.3707000000004
 30
0.0
 10
2347.4293
 20
-503.4062000000004
 30
0.0
 10
2347.4293
 20
-503.4062000000004
 30
0.0
 10
2241.814399999999
 20
-609.0219999999999
 30
0.0
 10
2241.814399999999
 20
-609.0219999999999
 30
0.0
 10
2234.7834
 20
-616.0610999999999
 30
0.0
 10
2223.361499999999
 20
-616.0610999999999
 30
0.0
 10
2216.3305
 20
-609.0219999999999
 30
0.0
  0
HATCH
  5
62
330
4F
100
AcDbEntity
  8
Layer 1
 62
    40
100
AcDbHatch
 10
0.0
 20
0.0
 30
0.0
210
0.0
220
0.0
230
1.0
  2
SOLID
 70
     1
 71
     0
 91
        1
 92
        1
 93
        1
 72
     4
 94
        3
 73
     0
 74
     1
 95
       23
 96
       19
 40
0.0
 40
0.0
 40
0.0
 40
0.0
 40
1.0
 40
1.0
 40
1.0
 40
2.0
 40
2.0
 40
2.0
 40
3.0
 40
3.0
 40
3.0
 40
4.0
 40
4.0
 40
4.0
 40
5.0
 40
5.0
 40
5.0
 40
6.0
 40
6.0
 40
6.0
 40
6.0
 10
2216.3305
 20
-609.0219999999999
 10
2209.291499999999
 20
-601.9863999999998
 10
2209.291499999999
 20
-590.5735000000004
 10
2216.3305
 20
-583.5380000000005
 10
2216.3305
 20
-583.5380000000005
 10
2321.9462
 20
-477.9223000000002
 10
2321.9462
 20
-477.9223000000002
 10
2328.977200000001
 20
-470.8831
 10
2340.3992
 20
-470.8831
 10
2347.4293
 20
-477.9223000000002
 10
2354.469300000001
 20
-484.9578000000001
 10
2354.469300000001
 20
-496.3707000000004
 10
2347.4293
 20
-503.4062000000004
 10
2347.4293
 20
-503.4062000000004
 10
2241.814399999999
 20
-609.0219999999999
 10
2241.814399999999
 20
-609.0219999999999
 10
2234.7834
 20
-616.0610999999999
 10
2223.361499999999
 20
-616.0610999999999
 10
2216.3305
 20
-609.0219999999999
 97
        0
 75
     2
 76
     1
 98
        0
  0
ENDBLK
  5
52
330
4F
100
AcDbEntity
  8
0
100
AcDbBlockEnd
  0
BLOCK
  5
67
330
65
100
AcDbEntity
  8
0
100
AcDbBlockBegin
  2
block 6
 70
     0
 10
0.0
 20
0.0
 30
0.0
  3
block 6
  1

  0
SPLINE
  5
69
330
65
100
AcDbEntity
  8
Layer 1
370
     0
100
AcDbSpline
210
0.0
220
0.0
230
1.0
 70
    11
 71
     3
 72
    23
 73
    19
 74
     0
 42
0.0000000001
 43
0.0000000001
 12
1.0
 22
0.0
 32
0.0
 13
1.0
 23
0.0
 33
0.0
 40
0.0
 40
0.0
 40
0.0
 40
0.0
 40
1.0
 40
1.0
 40
1.0
 40
2.0
 40
2.0
 40
2.0
 40
3.0
 40
3.0
 40
3.0
 40
4.0
 40
4.0
 40
4.0
 40
5.0
 40
5.0
 40
5.0
 40
6.0
 40
6.0
 40
6.0
 40
6.0
 10
996.1654748347428
 20
-1620.802900000001
 30
0.0
 10
987.6647750494885
 20
-1615.6245
 30
0.0
 10
984.9770751173855
 20
-1604.5368
 30
0.0
 10
990.1589999999997
 20
-1596.0362
 30
0.0
 10
990.1589999999997
 20
-1596.0362
 30
0.0
 10
1063.5733
 20
-1475.6024
 30
0.0
 10
1063.5733
 20
-1475.6024
 30
0.0
 10
1068.7472
 20
-1467.098099999999
 30
0.0
 10
1079.8393
 20
-1464.4139
 30
0.0
 10
1088.3391
 20
-1469.596799999999
 30
0.0
 10
1096.8398
 20
-1474.7752
 30
0.0
 10
1099.5276
 20
-1485.862800000001
 30
0.0
 10
1094.3447
 20
-1494.3626
 30
0.0
 10
1094.3447
 20
-1494.3626
 30
0.0
 10
1020.9313
 20
-1614.7973
 30
0.0
 10
1020.9313
 20
-1614.7973
 30
0.0
 10
1015.7609
 20
-1623.2862
 30
0.0
 10
1004.6868
 20
-1625.997499999999
 30
0.0
 10
996.1654748347428
 20
-1620.802900000001
 30
0.0
  0
HATCH
  5
6A
330
65
100
AcDbEntity
  8
Layer 1
 62
   162
100
AcDbHatch
 10
0.0
 20
0.0
 30
0.0
210
0.0
220
0.0
230
1.0
  2
SOLID
 70
     1
 71
     0
 91
        1
 92
        1
 93
        1
 72
     4
 94
        3
 73
     0
 74
     1
 95
       23
 96
       19
 40
0.0
 40
0.0
 40
0.0
 40
0.0
 40
1.0
 40
1.0
 40
1.0
 40
2.0
 40
2.0
 40
2.0
 40
3.0
 40
3.0
 40
3.0
 40
4.0
 40
4.0
 40
4.0
 40
5.0
 40
5.0
 40
5.0
 40
6.0
 40
6.0
 40
6.0
 40
6.0
 10
996.1654748347428
 20
-1620.802900000001
 10
987.6647750494885
 20
-1615.6245
 10
984.9770751173855
 20
-1604.5368
 10
990.1589999999997
 20
-1596.0362
 10
990.1589999999997
 20
-1596.0362
 10
1063.5733
 20
-1475.6024
 10
1063.5733
 20
-1475.6024
 10
1068.7472
 20
-1467.098099999999
 10
1079.8393
 20
-1464.4139
 10
1088.3391
 20
-1469.596799999999
 10
1096.8398
 20
-1474.7752
 10
1099.5276
 20
-1485.862800000001
 10
1094.3447
 20
-1494.3626
 10
1094.3447
 20
-1494.3626
 10
1020.9313
 20
-1614.7973
 10
1020.9313
 20
-1614.7973
 10
1015.7609
 20
-1623.2862
 10
1004.6868
 20
-1625.997499999999
 10
996.1654748347428
 20
-1620.802900000001
 97
        0
 75
     2
 76
     1
 98
        0
  0
SPLINE
  5
6B
330
65
100
AcDbEntity
  8
Layer 1
370
     0
100
AcDbSpline
210
0.0
220
0.0
230
1.0
 70
    11
 71
     3
 72
    23
 73
    19
 74
     0
 42
0.0000000001
 43
0.0000000001
 12
1.0
 22
0.0
 32
0.0
 13
1.0
 23
0.0
 33
0.0
 40
0.0
 40
0.0
 40
0.0
 40
0.0
 40
1.0
 40
1.0
 40
1.0
 40
2.0
 40
2.0
 40
2.0
 40
3.0
 40
3.0
 40
3.0
 40
4.0
 40
4.0
 40
4.0
 40
5.0
 40
5.0
 40
5.0
 40
6.0
 40
6.0
 40
6.0
 40
6.0
 10
1143.7186
 20
-1891.9715
 30
0.0
 10
1135.2189
 20
-1886.793100000001
 30
0.0
 10
1132.5301
 20
-1875.7055
 30
0.0
 10
1137.713
 20
-1867.2057
 30
0.0
 10
1137.713
 20
-1867.2057
 30
0.0
 10
1194.7163
 20
-1773.6976
 30
0.0
 10
1194.7163
 20
-1773.6976
 30
0.0
 10
1199.8947
 20
-1765.193299999999
 30
0.0
 10
1210.977800000001
 20
-1762.504499999999
 30
0.0
 10
1219.4821
 20
-1767.691999999999
 30
0.0
 10
1227.9827
 20
-1772.8704
 30
0.0
 10
1230.670700000001
 20
-1783.958000000001
 30
0.0
 10
1225.4877
 20
-1792.458699999999
 30
0.0
 10
1225.4877
 20
-1792.458699999999
 30
0.0
 10
1168.4853
 20
-1885.965899999999
 30
0.0
 10
1168.4853
 20
-1885.965899999999
 30
0.0
 10
1163.315000000001
 20
-1894.4557
 30
0.0
 10
1152.2409
 20
-1897.166999999999
 30
0.0
 10
1143.7186
 20
-1891.9715
 30
0.0
  0
HATCH
  5
6C
330
65
100
AcDbEntity
  8
Layer 1
 62
   162
100
AcDbHatch
 10
0.0
 20
0.0
 30
0.0
210
0.0
220
0.0
230
1.0
  2
SOLID
 70
     1
 71
     0
 91
        1
 92
        1
 93
        1
 72
     4
 94
        3
 73
     0
 74
     1
 95
       23
 96
       19
 40
0.0
 40
0.0
 40
0.0
 40
0.0
 40
1.0
 40
1.0
 40
1.0
 40
2.0
 40
2.0
 40
2.0
 40
3.0
 40
3.0
 40
3.0
 40
4.0
 40
4.0
 40
4.0
 40
5.0
 40
5.0
 40
5.0
 40
6.0
 40
6.0
 40
6.0
 40
6.0
 10
1143.7186
 20
-1891.9715
 10
1135.2189
 20
-1886.793100000001
 10
1132.5301
 20
-1875.7055
 10
1137.713
 20
-1867.2057
 10
1137.713
 20
-1867.2057
 10
1194.7163
 20
-1773.6976
 10
1194.7163
 20
-1773.6976
 10
1199.8947
 20
-1765.193299999999
 10
1210.977800000001
 20
-1762.504499999999
 10
1219.4821
 20
-1767.691999999999
 10
1227.9827
 20
-1772.8704
 10
1230.670700000001
 20
-1783.958000000001
 10
1225.4877
 20
-1792.458699999999
 10
1225.4877
 20
-1792.458699999999
 10
1168.4853
 20
-1885.965899999999
 10
1168.4853
 20
-1885.965899999999
 10
1163.315000000001
 20
-1894.4557
 10
1152.2409
 20
-1897.166999999999
 10
1143.7186
 20
-1891.9715
 97
        0
 75
     2
 76
     1
 98
        0
  0
SPLINE
  5
6D
330
65
100
AcDbEntity
  8
Layer 1
370
     0
100
AcDbSpline
210
0.0
220
0.0
230
1.0
 70
    11
 71
     3
 72
    23
 73
    19
 74
     0
 42
0.0000000001
 43
0.0000000001
 12
1.0
 22
0.0
 32
0.0
 13
1.0
 23
0.0
 33
0.0
 40
0.0
 40
0.0
 40
0.0
 40
0.0
 40
1.0
 40
1.0
 40
1.0
 40
2.0
 40
2.0
 40
2.0
 40
3.0
 40
3.0
 40
3.0
 40
4.0
 40
4.0
 40
4.0
 40
5.0
 40
5.0
 40
5.0
 40
6.0
 40
6.0
 40
6.0
 40
6.0
 10
1508.9765
 20
-1589.947700000001
 30
0.0
 10
1500.4759
 20
-1584.7693
 30
0.0
 10
1497.788
 20
-1573.6816
 30
0.0
 10
1502.9709
 20
-1565.181
 30
0.0
 10
1502.9709
 20
-1565.181
 30
0.0
 10
1557.5755
 20
-1475.6024
 30
0.0
 10
1557.5755
 20
-1475.6024
 30
0.0
 10
1562.754
 20
-1467.098099999999
 30
0.0
 10
1573.8371
 20
-1464.4139
 30
0.0
 10
1582.3422
 20
-1469.596799999999
 30
0.0
 10
1590.842000000001
 20
-1474.7752
 30
0.0
 10
1593.5308
 20
-1485.862800000001
 30
0.0
 10
1588.3478
 20
-1494.3626
 30
0.0
 10
1588.3478
 20
-1494.3626
 30
0.0
 10
1533.7423
 20
-1583.9421
 30
0.0
 10
1533.7423
 20
-1583.9421
 30
0.0
 10
1528.572200000001
 20
-1592.431
 30
0.0
 10
1517.4988
 20
-1595.1423
 30
0.0
 10
1508.9765
 20
-1589.947700000001
 30
0.0
  0
HATCH
  5
6E
330
65
100
AcDbEntity
  8
Layer 1
 62
   151
100
AcDbHatch
 10
0.0
 20
0.0
 30
0.0
210
0.0
220
0.0
230
1.0
  2
SOLID
 70
     1
 71
     0
 91
        1
 92
        1
 93
        1
 72
     4
 94
        3
 73
     0
 74
     1
 95
       23
 96
       19
 40
0.0
 40
0.0
 40
0.0
 40
0.0
 40
1.0
 40
1.0
 40
1.0
 40
2.0
 40
2.0
 40
2.0
 40
3.0
 40
3.0
 40
3.0
 40
4.0
 40
4.0
 40
4.0
 40
5.0
 40
5.0
 40
5.0
 40
6.0
 40
6.0
 40
6.0
 40
6.0
 10
1508.9765
 20
-1589.947700000001
 10
1500.4759
 20
-1584.7693
 10
1497.788
 20
-1573.6816
 10
1502.9709
 20
-1565.181
 10
1502.9709
 20
-1565.181
 10
1557.5755
 20
-1475.6024
 10
1557.5755
 20
-1475.6024
 10
1562.754
 20
-1467.098099999999
 10
1573.8371
 20
-1464.4139
 10
1582.3422
 20
-1469.596799999999
 10
1590.842000000001
 20
-1474.7752
 10
1593.5308
 20
-1485.862800000001
 10
1588.3478
 20
-1494.3626
 10
1588.3478
 20
-1494.3626
 10
1533.7423
 20
-1583.9421
 10
1533.7423
 20
-1583.9421
 10
1528.572200000001
 20
-1592.431
 10
1517.4988
 20
-1595.1423
 10
1508.9765
 20
-1589.947700000001
 97
        0
 75
     2
 76
     1
 98
        0
  0
SPLINE
  5
6F
330
65
100
AcDbEntity
  8
Layer 1
370
     0
100
AcDbSpline
210
0.0
220
0.0
230
1.0
 70
    11
 71
     3
 72
    23
 73
    19
 74
     0
 42
0.0000000001
 43
0.0000000001
 12
1.0
 22
0.0
 32
0.0
 13
1.0
 23
0.0
 33
0.0
 40
0.0
 40
0.0
 40
0.0
 40
0.0
 40
1.0
 40
1.0
 40
1.0
 40
2.0
 40
2.0
 40
2.0
 40
3.0
 40
3.0
 40
3.0
 40
4.0
 40
4.0
 40
4.0
 40
5.0
 40
5.0
 40
5.0
 40
6.0
 40
6.0
 40
6.0
 40
6.0
 10
1308.3839
 20
-1891.9715
 30
0.0
 10
1299.8833
 20
-1886.793100000001
 30
0.0
 10
1297.195400000001
 20
-1875.7055
 30
0.0
 10
1302.3783
 20
-1867.2057
 30
0.0
 10
1302.3783
 20
-1867.2057
 30
0.0
 10
1408.8915
 20
-1692.4746
 30
0.0
 10
1408.8915
 20
-1692.4746
 30
0.0
 10
1414.065500000001
 20
-1683.9694
 30
0.0
 10
1425.1568
 20
-1681.286
 30
0.0
 10
1433.6573
 20
-1686.469000000001
 30
0.0
 10
1442.1571
 20
-1691.6474
 30
0.0
 10
1444.8459
 20
-1702.7341
 30
0.0
 10
1439.6629
 20
-1711.2348
 30
0.0
 10
1439.6629
 20
-1711.2348
 30
0.0
 10
1333.1497
 20
-1885.965899999999
 30
0.0
 10
1333.1497
 20
-1885.965899999999
 30
0.0
 10
1327.9794
 20
-1894.4557
 30
0.0
 10
1316.9053
 20
-1897.166999999999
 30
0.0
 10
1308.3839
 20
-1891.9715
 30
0.0
  0
HATCH
  5
70
330
65
100
AcDbEntity
  8
Layer 1
 62
   162
100
AcDbHatch
 10
0.0
 20
0.0
 30
0.0
210
0.0
220
0.0
230
1.0
  2
SOLID
 70
     1
 71
     0
 91
        1
 92
        1
 93
        1
 72
     4
 94
        3
 73
     0
 74
     1
 95
       23
 96
       19
 40
0.0
 40
0.0
 40
0.0
 40
0.0
 40
1.0
 40
1.0
 40
1.0
 40
2.0
 40
2.0
 40
2.0
 40
3.0
 40
3.0
 40
3.0
 40
4.0
 40
4.0
 40
4.0
 40
5.0
 40
5.0
 40
5.0
 40
6.0
 40
6.0
 40
6.0
 40
6.0
 10
1308.3839
 20
-1891.9715
 10
1299.8833
 20
-1886.793100000001
 10
1297.195400000001
 20
-1875.7055
 10
1302.3783
 20
-1867.2057
 10
1302.3783
 20
-1867.2057
 10
1408.8915
 20
-1692.4746
 10
1408.8915
 20
-1692.4746
 10
1414.065500000001
 20
-1683.9694
 10
1425.1568
 20
-1681.286
 10
1433.6573
 20
-1686.469000000001
 10
1442.1571
 20
-1691.6474
 10
1444.8459
 20
-1702.7341
 10
1439.6629
 20
-1711.2348
 10
1439.6629
 20
-1711.2348
 10
1333.1497
 20
-1885.965899999999
 10
1333.1497
 20
-1885.965899999999
 10
1327.9794
 20
-1894.4557
 10
1316.9053
 20
-1897.166999999999
 10
1308.3839
 20
-1891.9715
 97
        0
 75
     2
 76
     1
 98
        0
  0
SPLINE
  5
71
330
65
100
AcDbEntity
  8
Layer 1
370
     0
100
AcDbSpline
210
0.0
220
0.0
230
1.0
 70
    11
 71
     3
 72
    23
 73
    19
 74
     0
 42
0.0000000001
 43
0.0000000001
 12
1.0
 22
0.0
 32
0.0
 13
1.0
 23
0.0
 33
0.0
 40
0.0
 40
0.0
 40
0.0
 40
0.0
 40
1.0
 40
1.0
 40
1.0
 40
2.0
 40
2.0
 40
2.0
 40
3.0
 40
3.0
 40
3.0
 40
4.0
 40
4.0
 40
4.0
 40
5.0
 40
5.0
 40
5.0
 40
6.0
 40
6.0
 40
6.0
 40
6.0
 10
1112.7976
 20
-1699.6065
 30
0.0
 10
1104.297
 20
-1694.428100000001
 30
0.0
 10
1101.6091
 20
-1683.3405
 30
0.0
 10
1106.7922
 20
-1674.8398
 30
0.0
 10
1106.7922
 20
-1674.8398
 30
0.0
 10
1228.242200000001
 20
-1475.6024
 30
0.0
 10
1228.242200000001
 20
-1475.6024
 30
0.0
 10
1233.4206
 20
-1467.098099999999
 30
0.0
 10
1244.5038
 20
-1464.4139
 30
0.0
 10
1253.0082
 20
-1469.596799999999
 30
0.0
 10
1261.5087
 20
-1474.7752
 30
0.0
 10
1264.1966
 20
-1485.862800000001
 30
0.0
 10
1259.0145
 20
-1494.3626
 30
0.0
 10
1259.0145
 20
-1494.3626
 30
0.0
 10
1137.563599999999
 20
-1693.600899999999
 30
0.0
 10
1137.563599999999
 20
-1693.600899999999
 30
0.0
 10
1132.3931
 20
-1702.0908
 30
0.0
 10
1121.3199
 20
-1704.8012
 30
0.0
 10
1112.7976
 20
-1699.6065
 30
0.0
  0
HATCH
  5
72
330
65
100
AcDbEntity
  8
Layer 1
 62
   151
100
AcDbHatch
 10
0.0
 20
0.0
 30
0.0
210
0.0
220
0.0
230
1.0
  2
SOLID
 70
     1
 71
     0
 91
        1
 92
        1
 93
        1
 72
     4
 94
        3
 73
     0
 74
     1
 95
       23
 96
       19
 40
0.0
 40
0.0
 40
0.0
 40
0.0
 40
1.0
 40
1.0
 40
1.0
 40
2.0
 40
2.0
 40
2.0
 40
3.0
 40
3.0
 40
3.0
 40
4.0
 40
4.0
 40
4.0
 40
5.0
 40
5.0
 40
5.0
 40
6.0
 40
6.0
 40
6.0
 40
6.0
 10
1112.7976
 20
-1699.6065
 10
1104.297
 20
-1694.428100000001
 10
1101.6091
 20
-1683.3405
 10
1106.7922
 20
-1674.8398
 10
1106.7922
 20
-1674.8398
 10
1228.242200000001
 20
-1475.6024
 10
1228.242200000001
 20
-1475.6024
 10
1233.4206
 20
-1467.098099999999
 10
1244.5038
 20
-1464.4139
 10
1253.0082
 20
-1469.596799999999
 10
1261.5087
 20
-1474.7752
 10
1264.1966
 20
-1485.862800000001
 10
1259.0145
 20
-1494.3626
 10
1259.0145
 20
-1494.3626
 10
1137.563599999999
 20
-1693.600899999999
 10
1137.563599999999
 20
-1693.600899999999
 10
1132.3931
 20
-1702.0908
 10
1121.3199
 20
-1704.8012
 10
1112.7976
 20
-1699.6065
 97
        0
 75
     2
 76
     1
 98
        0
  0
SPLINE
  5
73
330
65
100
AcDbEntity
  8
Layer 1
370
     0
100
AcDbSpline
210
0.0
220
0.0
230
1.0
 70
    11
 71
     3
 72
    23
 73
    19
 74
     0
 42
0.0000000001
 43
0.0000000001
 12
1.0
 22
0.0
 32
0.0
 13
1.0
 23
0.0
 33
0.0
 40
0.0
 40
0.0
 40
0.0
 40
0.0
 40
1.0
 40
1.0
 40
1.0
 40
2.0
 40
2.0
 40
2.0
 40
3.0
 40
3.0
 40
3.0
 40
4.0
 40
4.0
 40
4.0
 40
5.0
 40
5.0
 40
5.0
 40
6.0
 40
6.0
 40
6.0
 40
6.0
 10
2135.806700000001
 20
-1640.7246
 30
0.0
 10
2127.3061
 20
-1635.5461
 30
0.0
 10
2124.618399999999
 20
-1624.458500000001
 30
0.0
 10
2129.801100000001
 20
-1615.9588
 30
0.0
 10
2129.801100000001
 20
-1615.9588
 30
0.0
 10
2215.358200000001
 20
-1475.6024
 30
0.0
 10
2215.358200000001
 20
-1475.6024
 30
0.0
 10
2220.5321
 20
-1467.098099999999
 30
0.0
 10
2231.624299999999
 20
-1464.4139
 30
0.0
 10
2240.124900000001
 20
-1469.596799999999
 30
0.0
 10
2248.6247
 20
-1474.7752
 30
0.0
 10
2251.3135
 20
-1485.862800000001
 30
0.0
 10
2246.130499999999
 20
-1494.3626
 30
0.0
 10
2246.130499999999
 20
-1494.3626
 30
0.0
 10
2160.5725
 20
-1634.719000000001
 30
0.0
 10
2160.5725
 20
-1634.719000000001
 30
0.0
 10
2155.4022
 20
-1643.2088
 30
0.0
 10
2144.329
 20
-1645.920099999999
 30
0.0
 10
2135.806700000001
 20
-1640.7246
 30
0.0
  0
HATCH
  5
74
330
65
100
AcDbEntity
  8
Layer 1
 62
   151
100
AcDbHatch
 10
0.0
 20
0.0
 30
0.0
210
0.0
220
0.0
230
1.0
  2
SOLID
 70
     1
 71
     0
 91
        1
 92
        1
 93
        1
 72
     4
 94
        3
 73
     0
 74
     1
 95
       23
 96
       19
 40
0.0
 40
0.0
 40
0.0
 40
0.0
 40
1.0
 40
1.0
 40
1.0
 40
2.0
 40
2.0
 40
2.0
 40
3.0
 40
3.0
 40
3.0
 40
4.0
 40
4.0
 40
4.0
 40
5.0
 40
5.0
 40
5.0
 40
6.0
 40
6.0
 40
6.0
 40
6.0
 10
2135.806700000001
 20
-1640.7246
 10
2127.3061
 20
-1635.5461
 10
2124.618399999999
 20
-1624.458500000001
 10
2129.801100000001
 20
-1615.9588
 10
2129.801100000001
 20
-1615.9588
 10
2215.358200000001
 20
-1475.6024
 10
2215.358200000001
 20
-1475.6024
 10
2220.5321
 20
-1467.098099999999
 10
2231.624299999999
 20
-1464.4139
 10
2240.124900000001
 20
-1469.596799999999
 10
2248.6247
 20
-1474.7752
 10
2251.3135
 20
-1485.862800000001
 10
2246.130499999999
 20
-1494.3626
 10
2246.130499999999
 20
-1494.3626
 10
2160.5725
 20
-1634.719000000001
 10
2160.5725
 20
-1634.719000000001
 10
2155.4022
 20
-1643.2088
 10
2144.329
 20
-1645.920099999999
 10
2135.806700000001
 20
-1640.7246
 97
        0
 75
     2
 76
     1
 98
        0
  0
SPLINE
  5
75
330
65
100
AcDbEntity
  8
Layer 1
370
     0
100
AcDbSpline
210
0.0
220
0.0
230
1.0
 70
    11
 71
     3
 72
    23
 73
    19
 74
     0
 42
0.0000000001
 43
0.0000000001
 12
1.0
 22
0.0
 32
0.0
 13
1.0
 23
0.0
 33
0.0
 40
0.0
 40
0.0
 40
0.0
 40
0.0
 40
1.0
 40
1.0
 40
1.0
 40
2.0
 40
2.0
 40
2.0
 40
3.0
 40
3.0
 40
3.0
 40
4.0
 40
4.0
 40
4.0
 40
5.0
 40
5.0
 40
5.0
 40
6.0
 40
6.0
 40
6.0
 40
6.0
 10
1801.823
 20
-1891.791300000001
 30
0.0
 10
1793.3223
 20
-1886.6129
 30
0.0
 10
1790.6345
 20
-1875.5252
 30
0.0
 10
1795.8174
 20
-1867.0255
 30
0.0
 10
1795.8174
 20
-1867.0255
 30
0.0
 10
1931.909900000001
 20
-1643.773799999999
 30
0.0
 10
1931.909900000001
 20
-1643.773799999999
 30
0.0
 10
1937.0838
 20
-1635.268599999999
 30
0.0
 10
1948.1716
 20
-1632.5852
 30
0.0
 10
1956.6757
 20
-1637.7682
 30
0.0
 10
1965.176299999999
 20
-1642.946599999999
 30
0.0
 10
1967.8642
 20
-1654.0342
 30
0.0
 10
1962.6813
 20
-1662.534
 30
0.0
 10
1962.6813
 20
-1662.534
 30
0.0
 10
1826.5888
 20
-1885.7857
 30
0.0
 10
1826.5888
 20
-1885.7857
 30
0.0
 10
1821.418600000001
 20
-1894.2755
 30
0.0
 10
1810.345300000001
 20
-1896.986800000001
 30
0.0
 10
1801.823
 20
-1891.791300000001
 30
0.0
  0
HATCH
  5
76
330
65
100
AcDbEntity
  8
Layer 1
 62
   162
100
AcDbHatch
 10
0.0
 20
0.0
 30
0.0
210
0.0
220
0.0
230
1.0
  2
SOLID
 70
     1
 71
     0
 91
        1
 92
        1
 93
        1
 72
     4
 94
        3
 73
     0
 74
     1
 95
       23
 96
       19
 40
0.0
 40
0.0
 40
0.0
 40
0.0
 40
1.0
 40
1.0
 40
1.0
 40
2.0
 40
2.0
 40
2.0
 40
3.0
 40
3.0
 40
3.0
 40
4.0
 40
4.0
 40
4.0
 40
5.0
 40
5.0
 40
5.0
 40
6.0
 40
6.0
 40
6.0
 40
6.0
 10
1801.823
 20
-1891.791300000001
 10
1793.3223
 20
-1886.6129
 10
1790.6345
 20
-1875.5252
 10
1795.8174
 20
-1867.0255
 10
1795.8174
 20
-1867.0255
 10
1931.909900000001
 20
-1643.773799999999
 10
1931.909900000001
 20
-1643.773799999999
 10
1937.0838
 20
-1635.268599999999
 10
1948.1716
 20
-1632.5852
 10
1956.6757
 20
-1637.7682
 10
1965.176299999999
 20
-1642.946599999999
 10
1967.8642
 20
-1654.0342
 10
1962.6813
 20
-1662.534
 10
1962.6813
 20
-1662.534
 10
1826.5888
 20
-1885.7857
 10
1826.5888
 20
-1885.7857
 10
1821.418600000001
 20
-1894.2755
 10
1810.345300000001
 20
-1896.986800000001
 10
1801.823
 20
-1891.791300000001
 97
        0
 75
     2
 76
     1
 98
        0
  0
INSERT
  5
78
330
65
100
AcDbEntity
  8
Layer 1
100
AcDbBlockReference
  2
block 7
 10
0.0
 20
0.0
 30
0.0
  0
INSERT
  5
7E
330
65
100
AcDbEntity
  8
Layer 1
100
AcDbBlockReference
  2
block 8
 10
0.0
 20
0.0
 30
0.0
  0
ENDBLK
  5
68
330
65
100
AcDbEntity
  8
0
100
AcDbBlockEnd
  0
BLOCK
  5
79
330
77
100
AcDbEntity
  8
0
100
AcDbBlockBegin
  2
block 7
 70
     0
 10
0.0
 20
0.0
 30
0.0
  3
block 7
  1

  0
SPLINE
  5
7B
330
77
100
AcDbEntity
  8
Layer 1
370
     0
100
AcDbSpline
210
0.0
220
0.0
230
1.0
 70
    11
 71
     3
 72
    23
 73
    19
 74
     0
 42
0.0000000001
 43
0.0000000001
 12
1.0
 22
0.0
 32
0.0
 13
1.0
 23
0.0
 33
0.0
 40
0.0
 40
0.0
 40
0.0
 40
0.0
 40
1.0
 40
1.0
 40
1.0
 40
2.0
 40
2.0
 40
2.0
 40
3.0
 40
3.0
 40
3.0
 40
4.0
 40
4.0
 40
4.0
 40
5.0
 40
5.0
 40
5.0
 40
6.0
 40
6.0
 40
6.0
 40
6.0
 10
1629.441
 20
-1662.279
 30
0.0
 10
1620.9412
 20
-1657.1005
 30
0.0
 10
1618.2524
 20
-1646.0129
 30
0.0
 10
1623.4353
 20
-1637.513199999999
 30
0.0
 10
1623.4353
 20
-1637.513199999999
 30
0.0
 10
1722.1302
 20
-1475.6024
 30
0.0
 10
1722.1302
 20
-1475.6024
 30
0.0
 10
1727.3048
 20
-1467.098099999999
 30
0.0
 10
1738.3961
 20
-1464.4139
 30
0.0
 10
1746.896699999999
 20
-1469.596799999999
 30
0.0
 10
1755.396500000001
 20
-1474.7752
 30
0.0
 10
1758.0852
 20
-1485.862800000001
 30
0.0
 10
1752.9023
 20
-1494.3626
 30
0.0
 10
1752.9023
 20
-1494.3626
 30
0.0
 10
1654.2068
 20
-1656.2734
 30
0.0
 10
1654.2068
 20
-1656.2734
 30
0.0
 10
1649.0373
 20
-1664.763199999999
 30
0.0
 10
1637.9632
 20
-1667.4745
 30
0.0
 10
1629.441
 20
-1662.279
 30
0.0
  0
HATCH
  5
7C
330
77
100
AcDbEntity
  8
Layer 1
 62
   162
100
AcDbHatch
 10
0.0
 20
0.0
 30
0.0
210
0.0
220
0.0
230
1.0
  2
SOLID
 70
     1
 71
     0
 91
        1
 92
        1
 93
        1
 72
     4
 94
        3
 73
     0
 74
     1
 95
       23
 96
       19
 40
0.0
 40
0.0
 40
0.0
 40
0.0
 40
1.0
 40
1.0
 40
1.0
 40
2.0
 40
2.0
 40
2.0
 40
3.0
 40
3.0
 40
3.0
 40
4.0
 40
4.0
 40
4.0
 40
5.0
 40
5.0
 40
5.0
 40
6.0
 40
6.0
 40
6.0
 40
6.0
 10
1629.441
 20
-1662.279
 10
1620.9412
 20
-1657.1005
 10
1618.2524
 20
-1646.0129
 10
1623.4353
 20
-1637.513199999999
 10
1623.4353
 20
-1637.513199999999
 10
1722.1302
 20
-1475.6024
 10
1722.1302
 20
-1475.6024
 10
1727.3048
 20
-1467.098099999999
 10
1738.3961
 20
-1464.4139
 10
1746.896699999999
 20
-1469.596799999999
 10
1755.396500000001
 20
-1474.7752
 10
1758.0852
 20
-1485.862800000001
 10
1752.9023
 20
-1494.3626
 10
1752.9023
 20
-1494.3626
 10
1654.2068
 20
-1656.2734
 10
1654.2068
 20
-1656.2734
 10
1649.0373
 20
-1664.763199999999
 10
1637.9632
 20
-1667.4745
 10
1629.441
 20
-1662.279
 97
        0
 75
     2
 76
     1
 98
        0
  0
ENDBLK
  5
7A
330
77
100
AcDbEntity
  8
0
100
AcDbBlockEnd
  0
BLOCK
  5
7F
330
7D
100
AcDbEntity
  8
0
100
AcDbBlockBegin
  2
block 8
 70
     0
 10
0.0
 20
0.0
 30
0.0
  3
block 8
  1

  0
SPLINE
  5
81
330
7D
100
AcDbEntity
  8
Layer 1
370
     0
100
AcDbSpline
210
0.0
220
0.0
230
1.0
 70
    11
 71
     3
 72
    23
 73
    19
 74
     0
 42
0.0000000001
 43
0.0000000001
 12
1.0
 22
0.0
 32
0.0
 13
1.0
 23
0.0
 33
0.0
 40
0.0
 40
0.0
 40
0.0
 40
0.0
 40
1.0
 40
1.0
 40
1.0
 40
2.0
 40
2.0
 40
2.0
 40
3.0
 40
3.0
 40
3.0
 40
4.0
 40
4.0
 40
4.0
 40
5.0
 40
5.0
 40
5.0
 40
6.0
 40
6.0
 40
6.0
 40
6.0
 10
1637.264
 20
-1891.791300000001
 30
0.0
 10
1628.7634
 20
-1886.6129
 30
0.0
 10
1626.0755
 20
-1875.5252
 30
0.0
 10
1631.258400000001
 20
-1867.0255
 30
0.0
 10
1631.258400000001
 20
-1867.0255
 30
0.0
 10
1719.002399999999
 20
-1723.0874
 30
0.0
 10
1719.002399999999
 20
-1723.0874
 30
0.0
 10
1724.176299999999
 20
-1714.5831
 30
0.0
 10
1735.2721
 20
-1711.8989
 30
0.0
 10
1743.7682
 20
-1717.0818
 30
0.0
 10
1752.268899999999
 20
-1722.260200000001
 30
0.0
 10
1754.956700000001
 20
-1733.3478
 30
0.0
 10
1749.773800000001
 20
-1741.8485
 30
0.0
 10
1749.773800000001
 20
-1741.8485
 30
0.0
 10
1662.0298
 20
-1885.7857
 30
0.0
 10
1662.0298
 20
-1885.7857
 30
0.0
 10
1656.8595
 20
-1894.2755
 30
0.0
 10
1645.7863
 20
-1896.986800000001
 30
0.0
 10
1637.264
 20
-1891.791300000001
 30
0.0
  0
HATCH
  5
82
330
7D
100
AcDbEntity
  8
Layer 1
 62
   151
100
AcDbHatch
 10
0.0
 20
0.0
 30
0.0
210
0.0
220
0.0
230
1.0
  2
SOLID
 70
     1
 71
     0
 91
        1
 92
        1
 93
        1
 72
     4
 94
        3
 73
     0
 74
     1
 95
       23
 96
       19
 40
0.0
 40
0.0
 40
0.0
 40
0.0
 40
1.0
 40
1.0
 40
1.0
 40
2.0
 40
2.0
 40
2.0
 40
3.0
 40
3.0
 40
3.0
 40
4.0
 40
4.0
 40
4.0
 40
5.0
 40
5.0
 40
5.0
 40
6.0
 40
6.0
 40
6.0
 40
6.0
 10
1637.264
 20
-1891.791300000001
 10
1628.7634
 20
-1886.6129
 10
1626.0755
 20
-1875.5252
 10
1631.258400000001
 20
-1867.0255
 10
1631.258400000001
 20
-1867.0255
 10
1719.002399999999
 20
-1723.0874
 10
1719.002399999999
 20
-1723.0874
 10
1724.176299999999
 20
-1714.5831
 10
1735.2721
 20
-1711.8989
 10
1743.7682
 20
-1717.0818
 10
1752.268899999999
 20
-1722.260200000001
 10
1754.956700000001
 20
-1733.3478
 10
1749.773800000001
 20
-1741.8485
 10
1749.773800000001
 20
-1741.8485
 10
1662.0298
 20
-1885.7857
 10
1662.0298
 20
-1885.7857
 10
1656.8595
 20
-1894.2755
 10
1645.7863
 20
-1896.986800000001
 10
1637.264
 20
-1891.791300000001
 97
        0
 75
     2
 76
     1
 98
        0
  0
ENDBLK
  5
80
330
7D
100
AcDbEntity
  8
0
100
AcDbBlockEnd
  0
ENDSEC
  0
SECTION
  2
ENTITIES
  0
INSERT
  5
42
330
1F
100
AcDbEntity
  8
Layer 1
100
AcDbBlockReference
  2
block 2
 10
0.0
 20
0.0
 30
0.0
  0
ENDSEC
  0
SECTION
  2
OBJECTS
  0
DICTIONARY
  5
C
330
0
100
AcDbDictionary
281
     1
  3
ACAD_GROUP
350
D
  3
ACAD_LAYOUT
350
1A
  3
ACAD_MATERIAL
350
3B
  3
ACAD_MLEADERSTYLE
350
AA
  3
ACAD_MLINESTYLE
350
17
  3
ACAD_PLOTSETTINGS
350
19
  3
ACAD_PLOTSTYLENAME
350
E
  3
ACAD_TABLESTYLE
350
A9
  3
ACAD_VISUALSTYLE
350
2A
  0
DICTIONARY
  5
D
102
{ACAD_REACTORS
330
C
102
}
330
C
100
AcDbDictionary
281
     1
  0
DICTIONARY
  5
1A
102
{ACAD_REACTORS
330
C
102
}
330
C
100
AcDbDictionary
281
     1
  3
Layout1
350
1E
  3
Layout2
350
26
  3
Model
350
22
  0
DICTIONARY
  5
3B
102
{ACAD_REACTORS
330
C
102
}
330
C
100
AcDbDictionary
281
     1
  3
ByBlock
350
3D
  3
ByLayer
350
3C
  3
Global
350
3E
  0
DICTIONARY
  5
AA
102
{ACAD_REACTORS
330
C
102
}
330
C
100
AcDbDictionary
281
     1
  0
DICTIONARY
  5
17
102
{ACAD_REACTORS
330
C
102
}
330
C
100
AcDbDictionary
281
     1
  3
Standard
350
18
  0
DICTIONARY
  5
19
102
{ACAD_REACTORS
330
C
102
}
330
C
100
AcDbDictionary
281
     1
  0
ACDBDICTIONARYWDFLT
  5
E
102
{ACAD_REACTORS
330
C
102
}
330
C
100
AcDbDictionary
281
     1
  3
Normal
350
F
100
AcDbDictionaryWithDefault
340
F
  0
DICTIONARY
  5
A9
102
{ACAD_REACTORS
330
C
102
}
330
C
100
AcDbDictionary
281
     1
  0
DICTIONARY
  5
2A
102
{ACAD_REACTORS
330
C
102
}
330
C
100
AcDbDictionary
281
     1
  3
2dWireframe
350
2F
  3
3D Hidden
350
31
  3
3dWireframe
350
30
  3
Basic
350
32
  3
Brighten
350
36
  3
ColorChange
350
3A
  3
Conceptual
350
34
  3
Dim
350
35
  3
Facepattern
350
39
  3
Flat
350
2B
  3
FlatWithEdges
350
2C
  3
Gouraud
350
2D
  3
GouraudWithEdges
350
2E
  3
Linepattern
350
38
  3
Realistic
350
33
  3
Thicken
350
37
  0
LAYOUT
  5
1E
102
{ACAD_REACTORS
330
1A
102
}
330
1A
100
AcDbPlotSettings
  1

  2
none_device
  4

  6

 40
0.0
 41
0.0
 42
0.0
 43
0.0
 44
0.0
 45
0.0
 46
0.0
 47
0.0
 48
0.0
 49
0.0
140
0.0
141
0.0
142
1.0
143
1.0
 70
   688
 72
     0
 73
     0
 74
     5
  7

 75
    16
 76
     0
 77
     2
 78
   300
147
1.0
148
0.0
149
0.0
100
AcDbLayout
  1
Layout1
 70
     1
 71
     1
 10
0.0
 20
0.0
 11
12.0
 21
9.0
 12
0.0
 22
0.0
 32
0.0
 14
1.000000000000000E+20
 24
1.000000000000000E+20
 34
1.000000000000000E+20
 15
-1.000000000000000E+20
 25
-1.000000000000000E+20
 35
-1.000000000000000E+20
146
0.0
 13
0.0
 23
0.0
 33
0.0
 16
1.0
 26
0.0
 36
0.0
 17
0.0
 27
1.0
 37
0.0
 76
     0
330
1B
  0
LAYOUT
  5
26
102
{ACAD_REACTORS
330
1A
102
}
330
1A
100
AcDbPlotSettings
  1

  2
none_device
  4

  6

 40
0.0
 41
0.0
 42
0.0
 43
0.0
 44
0.0
 45
0.0
 46
0.0
 47
0.0
 48
0.0
 49
0.0
140
0.0
141
0.0
142
1.0
143
1.0
 70
   688
 72
     0
 73
     0
 74
     5
  7

 75
    16
 76
     0
 77
     2
 78
   300
147
1.0
148
0.0
149
0.0
100
AcDbLayout
  1
Layout2
 70
     1
 71
     2
 10
0.0
 20
0.0
 11
0.0
 21
0.0
 12
0.0
 22
0.0
 32
0.0
 14
0.0
 24
0.0
 34
0.0
 15
0.0
 25
0.0
 35
0.0
146
0.0
 13
0.0
 23
0.0
 33
0.0
 16
1.0
 26
0.0
 36
0.0
 17
0.0
 27
1.0
 37
0.0
 76
     0
330
23
  0
LAYOUT
  5
22
102
{ACAD_REACTORS
330
1A
102
}
330
1A
100
AcDbPlotSettings
  1

  2
none_device
  4

  6

 40
0.0
 41
0.0
 42
0.0
 43
0.0
 44
0.0
 45
0.0
 46
0.0
 47
0.0
 48
0.0
 49
0.0
140
0.0
141
0.0
142
1.0
143
1.0
 70
  1712
 72
     0
 73
     0
 74
     0
  7

 75
     0
 76
     0
 77
     2
 78
   300
147
1.0
148
0.0
149
0.0
100
AcDbLayout
  1
Model
 70
     1
 71
     0
 10
0.0
 20
0.0
 11
12.0
 21
9.0
 12
0.0
 22
0.0
 32
0.0
 14
1.000000000000000E+20
 24
1.000000000000000E+20
 34
1.000000000000000E+20
 15
-1.000000000000000E+20
 25
-1.000000000000000E+20
 35
-1.000000000000000E+20
146
0.0
 13
0.0
 23
0.0
 33
0.0
 16
1.0
 26
0.0
 36
0.0
 17
0.0
 27
1.0
 37
0.0
 76
     0
330
1F
331
29
  0
MATERIAL
  5
3D
102
{ACAD_REACTORS
330
3B
102
}
102
{ACAD_XDICTIONARY
360
A5
102
}
330
3B
100
AcDbMaterial
  1
ByBlock
  0
MATERIAL
  5
3C
102
{ACAD_REACTORS
330
3B
102
}
102
{ACAD_XDICTIONARY
360
A3
102
}
330
3B
100
AcDbMaterial
  1
ByLayer
  0
MATERIAL
  5
3E
102
{ACAD_REACTORS
330
3B
102
}
102
{ACAD_XDICTIONARY
360
A7
102
}
330
3B
100
AcDbMaterial
  1
Global
  0
MLINESTYLE
  5
18
102
{ACAD_REACTORS
330
17
102
}
330
17
100
AcDbMlineStyle
  2
Standard
 70
     0
  3

 62
   256
 51
90.0
 52
90.0
 71
     2
 49
0.5
 62
   256
  6
BYLAYER
 49
-0.5
 62
   256
  6
BYLAYER
  0
ACDBPLACEHOLDER
  5
F
102
{ACAD_REACTORS
330
E
102
}
330
E
  0
VISUALSTYLE
  5
2F
102
{ACAD_REACTORS
330
2A
102
}
102
{ACAD_XDICTIONARY
360
8B
102
}
330
2A
100
AcDbVisualStyle
  2
2dWireframe
 70
     4
 71
     0
 72
     2
 73
     0
 90
        0
 40
-0.6
 41
-30.0
 62
     5
 63
     7
421
 16777215
 74
     1
 91
        4
 64
     7
 65
   257
 75
     1
175
     1
 42
1.0
 92
        0
 66
   257
 43
1.0
 76
     1
 77
     6
 78
     2
 67
     7
 79
     5
170
     0
171
     0
290
     0
174
     0
 93
        1
 44
0.0
173
     0
291
     0
 45
0.0
1001
ACAD
1000
AcDbSavedByObjectVersion
1070
     0
  0
VISUALSTYLE
  5
31
102
{ACAD_REACTORS
330
2A
102
}
102
{ACAD_XDICTIONARY
360
8F
102
}
330
2A
100
AcDbVisualStyle
  2
3D Hidden
 70
     6
 71
     1
 72
     2
 73
     2
 90
        0
 40
-0.6
 41
-30.0
 62
     5
 63
     7
421
 16777215
 74
     2
 91
        2
 64
     7
 65
   257
 75
     2
175
     1
 42
40.0
 92
        0
 66
   257
 43
1.0
 76
     1
 77
     6
 78
     2
 67
     7
 79
     3
170
     0
171
     0
290
     0
174
     0
 93
        1
 44
0.0
173
     0
291
     0
 45
0.0
1001
ACAD
1000
AcDbSavedByObjectVersion
1070
     0
  0
VISUALSTYLE
  5
30
102
{ACAD_REACTORS
330
2A
102
}
102
{ACAD_XDICTIONARY
360
8D
102
}
330
2A
100
AcDbVisualStyle
  2
3dWireframe
 70
     5
 71
     0
 72
     2
 73
     0
 90
        0
 40
-0.6
 41
-30.0
 62
     5
 63
     7
421
 16777215
 74
     1
 91
        4
 64
     7
 65
   257
 75
     1
175
     1
 42
1.0
 92
        0
 66
   257
 43
1.0
 76
     1
 77
     6
 78
     2
 67
     7
 79
     5
170
     0
171
     0
290
     0
174
     0
 93
        1
 44
0.0
173
     0
291
     0
 45
0.0
1001
ACAD
1000
AcDbSavedByObjectVersion
1070
     0
  0
VISUALSTYLE
  5
32
102
{ACAD_REACTORS
330
2A
102
}
102
{ACAD_XDICTIONARY
360
91
102
}
330
2A
100
AcDbVisualStyle
  2
Basic
 70
     7
 71
     1
 72
     0
 73
     1
 90
        0
 40
-0.6
 41
-30.0
 62
     5
 63
     7
421
 16777215
 74
     0
 91
        4
 64
     7
 65
   257
 75
     1
175
     1
 42
1.0
 92
        8
 66
     7
 43
1.0
 76
     1
 77
     6
 78
     2
 67
     7
 79
     5
170
     0
171
     0
290
     0
174
     0
 93
        1
 44
0.0
173
     0
291
     1
 45
0.0
1001
ACAD
1000
AcDbSavedByObjectVersion
1070
     0
  0
VISUALSTYLE
  5
36
102
{ACAD_REACTORS
330
2A
102
}
102
{ACAD_XDICTIONARY
360
99
102
}
330
2A
100
AcDbVisualStyle
  2
Brighten
 70
    12
 71
     2
 72
     2
 73
     0
 90
        0
 40
-0.6
 41
-30.0
 62
     5
 63
     7
421
 16777215
 74
     1
 91
        4
 64
     7
 65
   257
 75
     1
175
     1
 42
1.0
 92
        8
 66
     7
 43
1.0
 76
     1
 77
     6
 78
     2
 67
     7
 79
     5
170
     0
171
     0
290
     0
174
     0
 93
        1
 44
50.0
173
     0
291
     1
 45
0.0
1001
ACAD
1000
AcDbSavedByObjectVersion
1070
     0
  0
VISUALSTYLE
  5
3A
102
{ACAD_REACTORS
330
2A
102
}
102
{ACAD_XDICTIONARY
360
A1
102
}
330
2A
100
AcDbVisualStyle
  2
ColorChange
 70
    16
 71
     2
 72
     2
 73
     3
 90
        0
 40
-0.6
 41
-30.0
 62
     5
 63
     8
421
  8421504
 74
     1
 91
        4
 64
     7
 65
   257
 75
     1
175
     1
 42
1.0
 92
        8
 66
     8
424
  8421504
 43
1.0
 76
     1
 77
     6
 78
     2
 67
     7
 79
     5
170
     0
171
     0
290
     0
174
     0
 93
        1
 44
0.0
173
     0
291
     1
 45
0.0
1001
ACAD
1000
AcDbSavedByObjectVersion
1070
     0
  0
VISUALSTYLE
  5
34
102
{ACAD_REACTORS
330
2A
102
}
102
{ACAD_XDICTIONARY
360
95
102
}
330
2A
100
AcDbVisualStyle
  2
Conceptual
 70
     9
 71
     3
 72
     2
 73
     0
 90
        0
 40
-0.6
 41
-30.0
 62
     5
 63
     7
421
 16777215
 74
     2
 91
        2
 64
     7
 65
   257
 75
     1
175
     1
 42
40.0
 92
        8
 66
     7
 43
1.0
 76
     1
 77
     6
 78
     2
 67
     7
 79
     3
170
     0
171
     0
290
     0
174
     0
 93
        1
 44
0.0
173
     0
291
     0
 45
0.0
1001
ACAD
1000
AcDbSavedByObjectVersion
1070
     0
  0
VISUALSTYLE
  5
35
102
{ACAD_REACTORS
330
2A
102
}
102
{ACAD_XDICTIONARY
360
97
102
}
330
2A
100
AcDbVisualStyle
  2
Dim
 70
    11
 71
     2
 72
     2
 73
     0
 90
        0
 40
-0.6
 41
-30.0
 62
     5
 63
     7
421
 16777215
 74
     1
 91
        4
 64
     7
 65
   257
 75
     1
175
     1
 42
1.0
 92
        8
 66
     7
 43
1.0
 76
     1
 77
     6
 78
     2
 67
     7
 79
     5
170
     0
171
     0
290
     0
174
     0
 93
        1
 44
-50.0
173
     0
291
     1
 45
0.0
1001
ACAD
1000
AcDbSavedByObjectVersion
1070
     0
  0
VISUALSTYLE
  5
39
102
{ACAD_REACTORS
330
2A
102
}
102
{ACAD_XDICTIONARY
360
9F
102
}
330
2A
100
AcDbVisualStyle
  2
Facepattern
 70
    15
 71
     2
 72
     2
 73
     0
 90
        0
 40
-0.6
 41
-30.0
 62
     5
 63
     7
421
 16777215
 74
     1
 91
        4
 64
     7
 65
   257
 75
     1
175
     1
 42
1.0
 92
        8
 66
     7
 43
1.0
 76
     1
 77
     6
 78
     2
 67
     7
 79
     5
170
     0
171
     0
290
     0
174
     0
 93
        1
 44
0.0
173
     0
291
     1
 45
0.0
1001
ACAD
1000
AcDbSavedByObjectVersion
1070
     0
  0
VISUALSTYLE
  5
2B
102
{ACAD_REACTORS
330
2A
102
}
102
{ACAD_XDICTIONARY
360
83
102
}
330
2A
100
AcDbVisualStyle
  2
Flat
 70
     0
 71
     2
 72
     1
 73
     1
 90
        2
 40
-0.6
 41
30.0
 62
     5
 63
     7
421
 16777215
 74
     0
 91
        4
 64
     7
 65
   257
 75
     1
175
     1
 42
1.0
 92
        8
 66
     7
 43
1.0
 76
     1
 77
     6
 78
     2
 67
     7
 79
     5
170
     0
171
     0
290
     0
174
     0
 93
       13
 44
0.0
173
     0
291
     1
 45
0.0
1001
ACAD
1000
AcDbSavedByObjectVersion
1070
     0
  0
VISUALSTYLE
  5
2C
102
{ACAD_REACTORS
330
2A
102
}
102
{ACAD_XDICTIONARY
360
85
102
}
330
2A
100
AcDbVisualStyle
  2
FlatWithEdges
 70
     1
 71
     2
 72
     1
 73
     1
 90
        2
 40
-0.6
 41
30.0
 62
     5
 63
     7
421
 16777215
 74
     1
 91
        4
 64
     7
 65
   257
 75
     1
175
     1
 42
1.0
 92
        0
 66
   257
 43
1.0
 76
     1
 77
     6
 78
     2
 67
     7
 79
     5
170
     0
171
     0
290
     0
174
     0
 93
       13
 44
0.0
173
     0
291
     1
 45
0.0
1001
ACAD
1000
AcDbSavedByObjectVersion
1070
     0
  0
VISUALSTYLE
  5
2D
102
{ACAD_REACTORS
330
2A
102
}
102
{ACAD_XDICTIONARY
360
87
102
}
330
2A
100
AcDbVisualStyle
  2
Gouraud
 70
     2
 71
     2
 72
     2
 73
     1
 90
        2
 40
-0.6
 41
30.0
 62
     5
 63
     7
421
 16777215
 74
     0
 91
        4
 64
     7
 65
   257
 75
     1
175
     1
 42
1.0
 92
        0
 66
     7
 43
1.0
 76
     1
 77
     6
 78
     2
 67
     7
 79
     5
170
     0
171
     0
290
     0
174
     0
 93
       13
 44
0.0
173
     0
291
     1
 45
0.0
1001
ACAD
1000
AcDbSavedByObjectVersion
1070
     0
  0
VISUALSTYLE
  5
2E
102
{ACAD_REACTORS
330
2A
102
}
102
{ACAD_XDICTIONARY
360
89
102
}
330
2A
100
AcDbVisualStyle
  2
GouraudWithEdges
 70
     3
 71
     2
 72
     2
 73
     1
 90
        2
 40
-0.6
 41
30.0
 62
     5
 63
     7
421
 16777215
 74
     1
 91
        4
 64
     7
 65
   257
 75
     1
175
     1
 42
1.0
 92
        0
 66
   257
 43
1.0
 76
     1
 77
     6
 78
     2
 67
     7
 79
     5
170
     0
171
     0
290
     0
174
     0
 93
       13
 44
0.0
173
     0
291
     1
 45
0.0
1001
ACAD
1000
AcDbSavedByObjectVersion
1070
     0
  0
VISUALSTYLE
  5
38
102
{ACAD_REACTORS
330
2A
102
}
102
{ACAD_XDICTIONARY
360
9D
102
}
330
2A
100
AcDbVisualStyle
  2
Linepattern
 70
    14
 71
     2
 72
     2
 73
     0
 90
        0
 40
-0.6
 41
-30.0
 62
     5
 63
     7
421
 16777215
 74
     1
 91
        4
 64
     7
 65
   257
 75
     7
175
     7
 42
1.0
 92
        8
 66
     7
 43
1.0
 76
     1
 77
     6
 78
     2
 67
     7
 79
     5
170
     0
171
     0
290
     0
174
     0
 93
        1
 44
0.0
173
     0
291
     1
 45
0.0
1001
ACAD
1000
AcDbSavedByObjectVersion
1070
     0
  0
VISUALSTYLE
  5
33
102
{ACAD_REACTORS
330
2A
102
}
102
{ACAD_XDICTIONARY
360
93
102
}
330
2A
100
AcDbVisualStyle
  2
Realistic
 70
     8
 71
     2
 72
     2
 73
     0
 90
        0
 40
-0.6
 41
-30.0
 62
     5
 63
     7
421
 16777215
 74
     1
 91
        0
 64
     7
 65
   257
 75
     1
175
     1
 42
1.0
 92
        8
 66
     8
424
  7895160
 43
1.0
 76
     1
 77
     6
 78
     2
 67
     7
 79
     5
170
     0
171
     0
290
     0
174
     0
 93
       13
 44
0.0
173
     0
291
     0
 45
0.0
1001
ACAD
1000
AcDbSavedByObjectVersion
1070
     0
  0
VISUALSTYLE
  5
37
102
{ACAD_REACTORS
330
2A
102
}
102
{ACAD_XDICTIONARY
360
9B
102
}
330
2A
100
AcDbVisualStyle
  2
Thicken
 70
    13
 71
     2
 72
     2
 73
     0
 90
        0
 40
-0.6
 41
-30.0
 62
     5
 63
     7
421
 16777215
 74
     1
 91
        4
 64
     7
 65
   257
 75
     1
175
     1
 42
1.0
 92
       12
 66
     7
 43
1.0
 76
     1
 77
     6
 78
     2
 67
     7
 79
     5
170
     0
171
     0
290
     0
174
     0
 93
        1
 44
0.0
173
     0
291
     1
 45
0.0
1001
ACAD
1000
AcDbSavedByObjectVersion
1070
     0
  0
DICTIONARY
  5
A5
330
3D
100
AcDbDictionary
280
     1
281
     1
  3
ACAD_XREC_ROUNDTRIP
360
A6
  0
DICTIONARY
  5
A3
330
3C
100
AcDbDictionary
280
     1
281
     1
  3
ACAD_XREC_ROUNDTRIP
360
A4
  0
DICTIONARY
  5
A7
330
3E
100
AcDbDictionary
280
     1
281
     1
  3
ACAD_XREC_ROUNDTRIP
360
A8
  0
DICTIONARY
  5
8B
330
2F
100
AcDbDictionary
280
     1
281
     1
  3
ACAD_XREC_ROUNDTRIP
360
8C
  0
DICTIONARY
  5
8F
330
31
100
AcDbDictionary
280
     1
281
     1
  3
ACAD_XREC_ROUNDTRIP
360
90
  0
DICTIONARY
  5
8D
330
30
100
AcDbDictionary
280
     1
281
     1
  3
ACAD_XREC_ROUNDTRIP
360
8E
  0
DICTIONARY
  5
91
330
32
100
AcDbDictionary
280
     1
281
     1
  3
ACAD_XREC_ROUNDTRIP
360
92
  0
DICTIONARY
  5
99
330
36
100
AcDbDictionary
280
     1
281
     1
  3
ACAD_XREC_ROUNDTRIP
360
9A
  0
DICTIONARY
  5
A1
330
3A
100
AcDbDictionary
280
     1
281
     1
  3
ACAD_XREC_ROUNDTRIP
360
A2
  0
DICTIONARY
  5
95
330
34
100
AcDbDictionary
280
     1
281
     1
  3
ACAD_XREC_ROUNDTRIP
360
96
  0
DICTIONARY
  5
97
330
35
100
AcDbDictionary
280
     1
281
     1
  3
ACAD_XREC_ROUNDTRIP
360
98
  0
DICTIONARY
  5
9F
330
39
100
AcDbDictionary
280
     1
281
     1
  3
ACAD_XREC_ROUNDTRIP
360
A0
  0
DICTIONARY
  5
83
330
2B
100
AcDbDictionary
280
     1
281
     1
  3
ACAD_XREC_ROUNDTRIP
360
84
  0
DICTIONARY
  5
85
330
2C
100
AcDbDictionary
280
     1
281
     1
  3
ACAD_XREC_ROUNDTRIP
360
86
  0
DICTIONARY
  5
87
330
2D
100
AcDbDictionary
280
     1
281
     1
  3
ACAD_XREC_ROUNDTRIP
360
88
  0
DICTIONARY
  5
89
330
2E
100
AcDbDictionary
280
     1
281
     1
  3
ACAD_XREC_ROUNDTRIP
360
8A
  0
DICTIONARY
  5
9D
330
38
100
AcDbDictionary
280
     1
281
     1
  3
ACAD_XREC_ROUNDTRIP
360
9E
  0
DICTIONARY
  5
93
330
33
100
AcDbDictionary
280
     1
281
     1
  3
ACAD_XREC_ROUNDTRIP
360
94
  0
DICTIONARY
  5
9B
330
37
100
AcDbDictionary
280
     1
281
     1
  3
ACAD_XREC_ROUNDTRIP
360
9C
  0
XRECORD
  5
A6
102
{ACAD_REACTORS
330
A5
102
}
330
A5
100
AcDbXrecord
280
     1
102
MATERIAL
148
0.0
149
0.0
149
0.0
 93
        0
 94
      127
282
     0
 72
     1
 77
     1
171
     1
175
     1
179
     1
273
     0
  0
XRECORD
  5
A4
102
{ACAD_REACTORS
330
A3
102
}
330
A3
100
AcDbXrecord
280
     1
102
MATERIAL
148
0.0
149
0.0
149
0.0
 93
        0
 94
      127
282
     0
 72
     1
 77
     1
171
     1
175
     1
179
     1
273
     0
  0
XRECORD
  5
A8
102
{ACAD_REACTORS
330
A7
102
}
330
A7
100
AcDbXrecord
280
     1
102
MATERIAL
148
0.0
149
0.0
149
0.0
 93
        0
 94
      127
282
     0
 72
     1
 77
     1
171
     1
175
     1
179
     1
273
     0
  0
XRECORD
  5
8C
102
{ACAD_REACTORS
330
8B
102
}
330
8B
100
AcDbXrecord
280
     1
102
RTVSPropertyOp0
 70
     1
102
RTVSPropertyOp1
 70
     1
102
RTVSPropertyOp2
 70
     1
102
RTVSPropertyOp3
 70
     1
102
RTVSPropertyOp4
 70
     1
102
RTVSPropertyOp5
 70
     1
102
RTVSPropertyOp6
 70
     1
102
RTVSPropertyOp7
 70
     1
102
RTVSPropertyOp8
 70
     1
102
RTVSPropertyOp9
 70
     1
102
RTVSPropertyOp10
 70
     1
102
RTVSPropertyOp11
 70
     1
102
RTVSPropertyOp12
 70
     1
102
RTVSPropertyOp13
 70
     1
102
RTVSPropertyOp14
 70
     1
102
RTVSPropertyOp15
 70
     1
102
RTVSPropertyOp16
 70
     1
102
RTVSPropertyOp17
 70
     1
102
RTVSPropertyOp18
 70
     1
102
RTVSPropertyOp19
 70
     1
102
RTVSPropertyOp20
 70
     1
102
RTVSPropertyOp21
 70
     1
102
RTVSPropertyOp22
 70
     1
102
RTVSPropertyOp23
 70
     1
102
RTVSPropertyOp24
 70
     1
102
RTVSPropertyOp25
 70
     1
102
RTVSPropertyOp26
 70
     1
102
RTVSPropertyOp27
 70
     1
102
RTVSPropertyOp28
 70
     1
102
RTVSPropertyOp29
 70
     1
102
RTVSPropertyOp30
 70
     1
102
RTVSPropertyOp31
 70
     1
102
RTVSPropertyOp32
 70
     1
  0
XRECORD
  5
90
102
{ACAD_REACTORS
330
8F
102
}
330
8F
100
AcDbXrecord
280
     1
102
RTVSPropertyOp0
 70
     1
102
RTVSPropertyOp1
 70
     1
102
RTVSPropertyOp2
 70
     1
102
RTVSPropertyOp3
 70
     1
102
RTVSPropertyOp4
 70
     1
102
RTVSPropertyOp5
 70
     1
102
RTVSPropertyOp6
 70
     1
102
RTVSPropertyOp7
 70
     1
102
RTVSPropertyOp8
 70
     1
102
RTVSPropertyOp9
 70
     1
102
RTVSPropertyOp10
 70
     1
102
RTVSPropertyOp11
 70
     1
102
RTVSPropertyOp12
 70
     1
102
RTVSPropertyOp13
 70
     1
102
RTVSPropertyOp14
 70
     1
102
RTVSPropertyOp15
 70
     1
102
RTVSPropertyOp16
 70
     1
102
RTVSPropertyOp17
 70
     1
102
RTVSPropertyOp18
 70
     1
102
RTVSPropertyOp19
 70
     1
102
RTVSPropertyOp20
 70
     1
102
RTVSPropertyOp21
 70
     1
102
RTVSPropertyOp22
 70
     1
102
RTVSPropertyOp23
 70
     1
102
RTVSPropertyOp24
 70
     1
102
RTVSPropertyOp25
 70
     1
102
RTVSPropertyOp26
 70
     1
102
RTVSPropertyOp27
 70
     1
102
RTVSPropertyOp28
 70
     1
102
RTVSPropertyOp29
 70
     1
102
RTVSPropertyOp30
 70
     1
102
RTVSPropertyOp31
 70
     1
102
RTVSPropertyOp32
 70
     1
  0
XRECORD
  5
8E
102
{ACAD_REACTORS
330
8D
102
}
330
8D
100
AcDbXrecord
280
     1
102
RTVSPropertyOp0
 70
     1
102
RTVSPropertyOp1
 70
     1
102
RTVSPropertyOp2
 70
     1
102
RTVSPropertyOp3
 70
     1
102
RTVSPropertyOp4
 70
     1
102
RTVSPropertyOp5
 70
     1
102
RTVSPropertyOp6
 70
     1
102
RTVSPropertyOp7
 70
     1
102
RTVSPropertyOp8
 70
     1
102
RTVSPropertyOp9
 70
     1
102
RTVSPropertyOp10
 70
     1
102
RTVSPropertyOp11
 70
     1
102
RTVSPropertyOp12
 70
     1
102
RTVSPropertyOp13
 70
     1
102
RTVSPropertyOp14
 70
     1
102
RTVSPropertyOp15
 70
     1
102
RTVSPropertyOp16
 70
     1
102
RTVSPropertyOp17
 70
     1
102
RTVSPropertyOp18
 70
     1
102
RTVSPropertyOp19
 70
     1
102
RTVSPropertyOp20
 70
     1
102
RTVSPropertyOp21
 70
     1
102
RTVSPropertyOp22
 70
     1
102
RTVSPropertyOp23
 70
     1
102
RTVSPropertyOp24
 70
     1
102
RTVSPropertyOp25
 70
     1
102
RTVSPropertyOp26
 70
     1
102
RTVSPropertyOp27
 70
     1
102
RTVSPropertyOp28
 70
     1
102
RTVSPropertyOp29
 70
     1
102
RTVSPropertyOp30
 70
     1
102
RTVSPropertyOp31
 70
     1
102
RTVSPropertyOp32
 70
     1
  0
XRECORD
  5
92
102
{ACAD_REACTORS
330
91
102
}
330
91
100
AcDbXrecord
280
     1
102
RTVSPropertyOp0
 70
     1
102
RTVSPropertyOp1
 70
     1
102
RTVSPropertyOp2
 70
     1
102
RTVSPropertyOp3
 70
     1
102
RTVSPropertyOp4
 70
     1
102
RTVSPropertyOp5
 70
     1
102
RTVSPropertyOp6
 70
     1
102
RTVSPropertyOp7
 70
     1
102
RTVSPropertyOp8
 70
     1
102
RTVSPropertyOp9
 70
     1
102
RTVSPropertyOp10
 70
     1
102
RTVSPropertyOp11
 70
     1
102
RTVSPropertyOp12
 70
     1
102
RTVSPropertyOp13
 70
     1
102
RTVSPropertyOp14
 70
     1
102
RTVSPropertyOp15
 70
     1
102
RTVSPropertyOp16
 70
     1
102
RTVSPropertyOp17
 70
     1
102
RTVSPropertyOp18
 70
     1
102
RTVSPropertyOp19
 70
     1
102
RTVSPropertyOp20
 70
     1
102
RTVSPropertyOp21
 70
     1
102
RTVSPropertyOp22
 70
     1
102
RTVSPropertyOp23
 70
     1
102
RTVSPropertyOp24
 70
     1
102
RTVSPropertyOp25
 70
     1
102
RTVSPropertyOp26
 70
     1
102
RTVSPropertyOp27
 70
     1
102
RTVSPropertyOp28
 70
     1
102
RTVSPropertyOp29
 70
     1
102
RTVSPropertyOp30
 70
     1
102
RTVSPropertyOp31
 70
     1
102
RTVSPropertyOp32
 70
     1
  0
XRECORD
  5
9A
102
{ACAD_REACTORS
330
99
102
}
330
99
100
AcDbXrecord
280
     1
102
RTVSPropertyOp0
 70
     1
102
RTVSPropertyOp1
 70
     1
102
RTVSPropertyOp2
 70
     1
102
RTVSPropertyOp3
 70
     1
102
RTVSPropertyOp4
 70
     1
102
RTVSPropertyOp5
 70
     1
102
RTVSPropertyOp6
 70
     1
102
RTVSPropertyOp7
 70
     1
102
RTVSPropertyOp8
 70
     1
102
RTVSPropertyOp9
 70
     1
102
RTVSPropertyOp10
 70
     1
102
RTVSPropertyOp11
 70
     1
102
RTVSPropertyOp12
 70
     1
102
RTVSPropertyOp13
 70
     1
102
RTVSPropertyOp14
 70
     1
102
RTVSPropertyOp15
 70
     1
102
RTVSPropertyOp16
 70
     1
102
RTVSPropertyOp17
 70
     1
102
RTVSPropertyOp18
 70
     1
102
RTVSPropertyOp19
 70
     1
102
RTVSPropertyOp20
 70
     1
102
RTVSPropertyOp21
 70
     1
102
RTVSPropertyOp22
 70
     1
102
RTVSPropertyOp23
 70
     1
102
RTVSPropertyOp24
 70
     1
102
RTVSPropertyOp25
 70
     1
102
RTVSPropertyOp26
 70
     1
102
RTVSPropertyOp27
 70
     1
102
RTVSPropertyOp28
 70
     1
102
RTVSPropertyOp29
 70
     1
102
RTVSPropertyOp30
 70
     1
102
RTVSPropertyOp31
 70
     1
102
RTVSPropertyOp32
 70
     1
  0
XRECORD
  5
A2
102
{ACAD_REACTORS
330
A1
102
}
330
A1
100
AcDbXrecord
280
     1
102
RTVSPropertyOp0
 70
     1
102
RTVSPropertyOp1
 70
     1
102
RTVSPropertyOp2
 70
     1
102
RTVSPropertyOp3
 70
     1
102
RTVSPropertyOp4
 70
     1
102
RTVSPropertyOp5
 70
     1
102
RTVSPropertyOp6
 70
     1
102
RTVSPropertyOp7
 70
     1
102
RTVSPropertyOp8
 70
     1
102
RTVSPropertyOp9
 70
     1
102
RTVSPropertyOp10
 70
     1
102
RTVSPropertyOp11
 70
     1
102
RTVSPropertyOp12
 70
     1
102
RTVSPropertyOp13
 70
     1
102
RTVSPropertyOp14
 70
     1
102
RTVSPropertyOp15
 70
     1
102
RTVSPropertyOp16
 70
     1
102
RTVSPropertyOp17
 70
     1
102
RTVSPropertyOp18
 70
     1
102
RTVSPropertyOp19
 70
     1
102
RTVSPropertyOp20
 70
     1
102
RTVSPropertyOp21
 70
     1
102
RTVSPropertyOp22
 70
     1
102
RTVSPropertyOp23
 70
     1
102
RTVSPropertyOp24
 70
     1
102
RTVSPropertyOp25
 70
     1
102
RTVSPropertyOp26
 70
     1
102
RTVSPropertyOp27
 70
     1
102
RTVSPropertyOp28
 70
     1
102
RTVSPropertyOp29
 70
     1
102
RTVSPropertyOp30
 70
     1
102
RTVSPropertyOp31
 70
     1
102
RTVSPropertyOp32
 70
     1
  0
XRECORD
  5
96
102
{ACAD_REACTORS
330
95
102
}
330
95
100
AcDbXrecord
280
     1
102
RTVSPropertyOp0
 70
     1
102
RTVSPropertyOp1
 70
     1
102
RTVSPropertyOp2
 70
     1
102
RTVSPropertyOp3
 70
     1
102
RTVSPropertyOp4
 70
     1
102
RTVSPropertyOp5
 70
     1
102
RTVSPropertyOp6
 70
     1
102
RTVSPropertyOp7
 70
     1
102
RTVSPropertyOp8
 70
     1
102
RTVSPropertyOp9
 70
     1
102
RTVSPropertyOp10
 70
     1
102
RTVSPropertyOp11
 70
     1
102
RTVSPropertyOp12
 70
     1
102
RTVSPropertyOp13
 70
     1
102
RTVSPropertyOp14
 70
     1
102
RTVSPropertyOp15
 70
     1
102
RTVSPropertyOp16
 70
     1
102
RTVSPropertyOp17
 70
     1
102
RTVSPropertyOp18
 70
     1
102
RTVSPropertyOp19
 70
     1
102
RTVSPropertyOp20
 70
     1
102
RTVSPropertyOp21
 70
     1
102
RTVSPropertyOp22
 70
     1
102
RTVSPropertyOp23
 70
     1
102
RTVSPropertyOp24
 70
     1
102
RTVSPropertyOp25
 70
     1
102
RTVSPropertyOp26
 70
     1
102
RTVSPropertyOp27
 70
     1
102
RTVSPropertyOp28
 70
     1
102
RTVSPropertyOp29
 70
     1
102
RTVSPropertyOp30
 70
     1
102
RTVSPropertyOp31
 70
     1
102
RTVSPropertyOp32
 70
     1
  0
XRECORD
  5
98
102
{ACAD_REACTORS
330
97
102
}
330
97
100
AcDbXrecord
280
     1
102
RTVSPropertyOp0
 70
     1
102
RTVSPropertyOp1
 70
     1
102
RTVSPropertyOp2
 70
     1
102
RTVSPropertyOp3
 70
     1
102
RTVSPropertyOp4
 70
     1
102
RTVSPropertyOp5
 70
     1
102
RTVSPropertyOp6
 70
     1
102
RTVSPropertyOp7
 70
     1
102
RTVSPropertyOp8
 70
     1
102
RTVSPropertyOp9
 70
     1
102
RTVSPropertyOp10
 70
     1
102
RTVSPropertyOp11
 70
     1
102
RTVSPropertyOp12
 70
     1
102
RTVSPropertyOp13
 70
     1
102
RTVSPropertyOp14
 70
     1
102
RTVSPropertyOp15
 70
     1
102
RTVSPropertyOp16
 70
     1
102
RTVSPropertyOp17
 70
     1
102
RTVSPropertyOp18
 70
     1
102
RTVSPropertyOp19
 70
     1
102
RTVSPropertyOp20
 70
     1
102
RTVSPropertyOp21
 70
     1
102
RTVSPropertyOp22
 70
     1
102
RTVSPropertyOp23
 70
     1
102
RTVSPropertyOp24
 70
     1
102
RTVSPropertyOp25
 70
     1
102
RTVSPropertyOp26
 70
     1
102
RTVSPropertyOp27
 70
     1
102
RTVSPropertyOp28
 70
     1
102
RTVSPropertyOp29
 70
     1
102
RTVSPropertyOp30
 70
     1
102
RTVSPropertyOp31
 70
     1
102
RTVSPropertyOp32
 70
     1
  0
XRECORD
  5
A0
102
{ACAD_REACTORS
330
9F
102
}
330
9F
100
AcDbXrecord
280
     1
102
RTVSPropertyOp0
 70
     1
102
RTVSPropertyOp1
 70
     1
102
RTVSPropertyOp2
 70
     1
102
RTVSPropertyOp3
 70
     1
102
RTVSPropertyOp4
 70
     1
102
RTVSPropertyOp5
 70
     1
102
RTVSPropertyOp6
 70
     1
102
RTVSPropertyOp7
 70
     1
102
RTVSPropertyOp8
 70
     1
102
RTVSPropertyOp9
 70
     1
102
RTVSPropertyOp10
 70
     1
102
RTVSPropertyOp11
 70
     1
102
RTVSPropertyOp12
 70
     1
102
RTVSPropertyOp13
 70
     1
102
RTVSPropertyOp14
 70
     1
102
RTVSPropertyOp15
 70
     1
102
RTVSPropertyOp16
 70
     1
102
RTVSPropertyOp17
 70
     1
102
RTVSPropertyOp18
 70
     1
102
RTVSPropertyOp19
 70
     1
102
RTVSPropertyOp20
 70
     1
102
RTVSPropertyOp21
 70
     1
102
RTVSPropertyOp22
 70
     1
102
RTVSPropertyOp23
 70
     1
102
RTVSPropertyOp24
 70
     1
102
RTVSPropertyOp25
 70
     1
102
RTVSPropertyOp26
 70
     1
102
RTVSPropertyOp27
 70
     1
102
RTVSPropertyOp28
 70
     1
102
RTVSPropertyOp29
 70
     1
102
RTVSPropertyOp30
 70
     1
102
RTVSPropertyOp31
 70
     1
102
RTVSPropertyOp32
 70
     1
  0
XRECORD
  5
84
102
{ACAD_REACTORS
330
83
102
}
330
83
100
AcDbXrecord
280
     1
102
RTVSPropertyOp0
 70
     1
102
RTVSPropertyOp1
 70
     1
102
RTVSPropertyOp2
 70
     1
102
RTVSPropertyOp3
 70
     1
102
RTVSPropertyOp4
 70
     1
102
RTVSPropertyOp5
 70
     1
102
RTVSPropertyOp6
 70
     1
102
RTVSPropertyOp7
 70
     1
102
RTVSPropertyOp8
 70
     1
102
RTVSPropertyOp9
 70
     1
102
RTVSPropertyOp10
 70
     1
102
RTVSPropertyOp11
 70
     1
102
RTVSPropertyOp12
 70
     1
102
RTVSPropertyOp13
 70
     1
102
RTVSPropertyOp14
 70
     1
102
RTVSPropertyOp15
 70
     1
102
RTVSPropertyOp16
 70
     1
102
RTVSPropertyOp17
 70
     1
102
RTVSPropertyOp18
 70
     1
102
RTVSPropertyOp19
 70
     1
102
RTVSPropertyOp20
 70
     1
102
RTVSPropertyOp21
 70
     1
102
RTVSPropertyOp22
 70
     1
102
RTVSPropertyOp23
 70
     1
102
RTVSPropertyOp24
 70
     1
102
RTVSPropertyOp25
 70
     1
102
RTVSPropertyOp26
 70
     1
102
RTVSPropertyOp27
 70
     1
102
RTVSPropertyOp28
 70
     1
102
RTVSPropertyOp29
 70
     1
102
RTVSPropertyOp30
 70
     1
102
RTVSPropertyOp31
 70
     1
102
RTVSPropertyOp32
 70
     1
  0
XRECORD
  5
86
102
{ACAD_REACTORS
330
85
102
}
330
85
100
AcDbXrecord
280
     1
102
RTVSPropertyOp0
 70
     1
102
RTVSPropertyOp1
 70
     1
102
RTVSPropertyOp2
 70
     1
102
RTVSPropertyOp3
 70
     1
102
RTVSPropertyOp4
 70
     1
102
RTVSPropertyOp5
 70
     1
102
RTVSPropertyOp6
 70
     1
102
RTVSPropertyOp7
 70
     1
102
RTVSPropertyOp8
 70
     1
102
RTVSPropertyOp9
 70
     1
102
RTVSPropertyOp10
 70
     1
102
RTVSPropertyOp11
 70
     1
102
RTVSPropertyOp12
 70
     1
102
RTVSPropertyOp13
 70
     1
102
RTVSPropertyOp14
 70
     1
102
RTVSPropertyOp15
 70
     1
102
RTVSPropertyOp16
 70
     1
102
RTVSPropertyOp17
 70
     1
102
RTVSPropertyOp18
 70
     1
102
RTVSPropertyOp19
 70
     1
102
RTVSPropertyOp20
 70
     1
102
RTVSPropertyOp21
 70
     1
102
RTVSPropertyOp22
 70
     1
102
RTVSPropertyOp23
 70
     1
102
RTVSPropertyOp24
 70
     1
102
RTVSPropertyOp25
 70
     1
102
RTVSPropertyOp26
 70
     1
102
RTVSPropertyOp27
 70
     1
102
RTVSPropertyOp28
 70
     1
102
RTVSPropertyOp29
 70
     1
102
RTVSPropertyOp30
 70
     1
102
RTVSPropertyOp31
 70
     1
102
RTVSPropertyOp32
 70
     1
  0
XRECORD
  5
88
102
{ACAD_REACTORS
330
87
102
}
330
87
100
AcDbXrecord
280
     1
102
RTVSPropertyOp0
 70
     1
102
RTVSPropertyOp1
 70
     1
102
RTVSPropertyOp2
 70
     1
102
RTVSPropertyOp3
 70
     1
102
RTVSPropertyOp4
 70
     1
102
RTVSPropertyOp5
 70
     1
102
RTVSPropertyOp6
 70
     1
102
RTVSPropertyOp7
 70
     1
102
RTVSPropertyOp8
 70
     1
102
RTVSPropertyOp9
 70
     1
102
RTVSPropertyOp10
 70
     1
102
RTVSPropertyOp11
 70
     1
102
RTVSPropertyOp12
 70
     1
102
RTVSPropertyOp13
 70
     1
102
RTVSPropertyOp14
 70
     1
102
RTVSPropertyOp15
 70
     1
102
RTVSPropertyOp16
 70
     1
102
RTVSPropertyOp17
 70
     1
102
RTVSPropertyOp18
 70
     1
102
RTVSPropertyOp19
 70
     1
102
RTVSPropertyOp20
 70
     1
102
RTVSPropertyOp21
 70
     1
102
RTVSPropertyOp22
 70
     1
102
RTVSPropertyOp23
 70
     1
102
RTVSPropertyOp24
 70
     1
102
RTVSPropertyOp25
 70
     1
102
RTVSPropertyOp26
 70
     1
102
RTVSPropertyOp27
 70
     1
102
RTVSPropertyOp28
 70
     1
102
RTVSPropertyOp29
 70
     1
102
RTVSPropertyOp30
 70
     1
102
RTVSPropertyOp31
 70
     1
102
RTVSPropertyOp32
 70
     1
  0
XRECORD
  5
8A
102
{ACAD_REACTORS
330
89
102
}
330
89
100
AcDbXrecord
280
     1
102
RTVSPropertyOp0
 70
     1
102
RTVSPropertyOp1
 70
     1
102
RTVSPropertyOp2
 70
     1
102
RTVSPropertyOp3
 70
     1
102
RTVSPropertyOp4
 70
     1
102
RTVSPropertyOp5
 70
     1
102
RTVSPropertyOp6
 70
     1
102
RTVSPropertyOp7
 70
     1
102
RTVSPropertyOp8
 70
     1
102
RTVSPropertyOp9
 70
     1
102
RTVSPropertyOp10
 70
     1
102
RTVSPropertyOp11
 70
     1
102
RTVSPropertyOp12
 70
     1
102
RTVSPropertyOp13
 70
     1
102
RTVSPropertyOp14
 70
     1
102
RTVSPropertyOp15
 70
     1
102
RTVSPropertyOp16
 70
     1
102
RTVSPropertyOp17
 70
     1
102
RTVSPropertyOp18
 70
     1
102
RTVSPropertyOp19
 70
     1
102
RTVSPropertyOp20
 70
     1
102
RTVSPropertyOp21
 70
     1
102
RTVSPropertyOp22
 70
     1
102
RTVSPropertyOp23
 70
     1
102
RTVSPropertyOp24
 70
     1
102
RTVSPropertyOp25
 70
     1
102
RTVSPropertyOp26
 70
     1
102
RTVSPropertyOp27
 70
     1
102
RTVSPropertyOp28
 70
     1
102
RTVSPropertyOp29
 70
     1
102
RTVSPropertyOp30
 70
     1
102
RTVSPropertyOp31
 70
     1
102
RTVSPropertyOp32
 70
     1
  0
XRECORD
  5
9E
102
{ACAD_REACTORS
330
9D
102
}
330
9D
100
AcDbXrecord
280
     1
102
RTVSPropertyOp0
 70
     1
102
RTVSPropertyOp1
 70
     1
102
RTVSPropertyOp2
 70
     1
102
RTVSPropertyOp3
 70
     1
102
RTVSPropertyOp4
 70
     1
102
RTVSPropertyOp5
 70
     1
102
RTVSPropertyOp6
 70
     1
102
RTVSPropertyOp7
 70
     1
102
RTVSPropertyOp8
 70
     1
102
RTVSPropertyOp9
 70
     1
102
RTVSPropertyOp10
 70
     1
102
RTVSPropertyOp11
 70
     1
102
RTVSPropertyOp12
 70
     1
102
RTVSPropertyOp13
 70
     1
102
RTVSPropertyOp14
 70
     1
102
RTVSPropertyOp15
 70
     1
102
RTVSPropertyOp16
 70
     1
102
RTVSPropertyOp17
 70
     1
102
RTVSPropertyOp18
 70
     1
102
RTVSPropertyOp19
 70
     1
102
RTVSPropertyOp20
 70
     1
102
RTVSPropertyOp21
 70
     1
102
RTVSPropertyOp22
 70
     1
102
RTVSPropertyOp23
 70
     1
102
RTVSPropertyOp24
 70
     1
102
RTVSPropertyOp25
 70
     1
102
RTVSPropertyOp26
 70
     1
102
RTVSPropertyOp27
 70
     1
102
RTVSPropertyOp28
 70
     1
102
RTVSPropertyOp29
 70
     1
102
RTVSPropertyOp30
 70
     1
102
RTVSPropertyOp31
 70
     1
102
RTVSPropertyOp32
 70
     1
  0
XRECORD
  5
94
102
{ACAD_REACTORS
330
93
102
}
330
93
100
AcDbXrecord
280
     1
102
RTVSPropertyOp0
 70
     1
102
RTVSPropertyOp1
 70
     1
102
RTVSPropertyOp2
 70
     1
102
RTVSPropertyOp3
 70
     1
102
RTVSPropertyOp4
 70
     1
102
RTVSPropertyOp5
 70
     1
102
RTVSPropertyOp6
 70
     1
102
RTVSPropertyOp7
 70
     1
102
RTVSPropertyOp8
 70
     1
102
RTVSPropertyOp9
 70
     1
102
RTVSPropertyOp10
 70
     1
102
RTVSPropertyOp11
 70
     1
102
RTVSPropertyOp12
 70
     1
102
RTVSPropertyOp13
 70
     1
102
RTVSPropertyOp14
 70
     1
102
RTVSPropertyOp15
 70
     1
102
RTVSPropertyOp16
 70
     1
102
RTVSPropertyOp17
 70
     1
102
RTVSPropertyOp18
 70
     1
102
RTVSPropertyOp19
 70
     1
102
RTVSPropertyOp20
 70
     1
102
RTVSPropertyOp21
 70
     1
102
RTVSPropertyOp22
 70
     1
102
RTVSPropertyOp23
 70
     1
102
RTVSPropertyOp24
 70
     1
102
RTVSPropertyOp25
 70
     1
102
RTVSPropertyOp26
 70
     1
102
RTVSPropertyOp27
 70
     1
102
RTVSPropertyOp28
 70
     1
102
RTVSPropertyOp29
 70
     1
102
RTVSPropertyOp30
 70
     1
102
RTVSPropertyOp31
 70
     1
102
RTVSPropertyOp32
 70
     1
  0
XRECORD
  5
9C
102
{ACAD_REACTORS
330
9B
102
}
330
9B
100
AcDbXrecord
280
     1
102
RTVSPropertyOp0
 70
     1
102
RTVSPropertyOp1
 70
     1
102
RTVSPropertyOp2
 70
     1
102
RTVSPropertyOp3
 70
     1
102
RTVSPropertyOp4
 70
     1
102
RTVSPropertyOp5
 70
     1
102
RTVSPropertyOp6
 70
     1
102
RTVSPropertyOp7
 70
     1
102
RTVSPropertyOp8
 70
     1
102
RTVSPropertyOp9
 70
     1
102
RTVSPropertyOp10
 70
     1
102
RTVSPropertyOp11
 70
     1
102
RTVSPropertyOp12
 70
     1
102
RTVSPropertyOp13
 70
     1
102
RTVSPropertyOp14
 70
     1
102
RTVSPropertyOp15
 70
     1
102
RTVSPropertyOp16
 70
     1
102
RTVSPropertyOp17
 70
     1
102
RTVSPropertyOp18
 70
     1
102
RTVSPropertyOp19
 70
     1
102
RTVSPropertyOp20
 70
     1
102
RTVSPropertyOp21
 70
     1
102
RTVSPropertyOp22
 70
     1
102
RTVSPropertyOp23
 70
     1
102
RTVSPropertyOp24
 70
     1
102
RTVSPropertyOp25
 70
     1
102
RTVSPropertyOp26
 70
     1
102
RTVSPropertyOp27
 70
     1
102
RTVSPropertyOp28
 70
     1
102
RTVSPropertyOp29
 70
     1
102
RTVSPropertyOp30
 70
     1
102
RTVSPropertyOp31
 70
     1
102
RTVSPropertyOp32
 70
     1
  0
ENDSEC
  0
EOF
